<svg width="56" height="56" viewBox="0 0 56 56" fill="none" xmlns="http://www.w3.org/2000/svg">
<g clip-path="url(#clip0_7036_35602)">
<path d="M22.2421 56.0003L22.2818 35.9982H16.3125V28.8716H22.2801V24.7155H22.253L22.2591 24.1216C22.2774 22.3019 22.3764 20.1778 22.9695 18.2151C23.5878 16.1713 24.664 14.557 26.2605 13.2789C27.6053 12.204 29.241 11.4749 30.9909 11.1736C32.2258 10.9603 33.5218 10.8574 34.953 10.8574C36.6157 10.8574 38.4341 10.9983 40.5115 11.2874L41.0182 11.3576V18.0477L39.6311 18.059L37.5363 18.0734C36.0541 18.0847 34.503 18.2465 33.2013 19.3571C31.9132 20.4578 31.2377 22.168 31.2482 24.3047L31.2181 28.1373L31.2129 28.8716H40.4322L39.0638 36.2485H31.3367L31.3079 56.0003H22.2421Z" fill="currentColor"/>
</g>
<defs>
<linearGradient id="paint0_linear_7036_35602" x1="39.2535" y1="56.0003" x2="14.3746" y2="54.9867" gradientUnits="userSpaceOnUse">
<stop stop-color="#818FFE"/>
<stop offset="1" stop-color="#81FEE5"/>
</linearGradient>
<clipPath id="clip0_7036_35602">
<rect width="56" height="56" fill="white"/>
</clipPath>
</defs>
</svg>
