<svg width="24" height="24" fill="none" xmlns="http://www.w3.org/2000/svg"><mask id="a" style="mask-type:alpha" maskUnits="userSpaceOnUse" x="0" y="0" width="24" height="24"><path fill="#D9D9D9" d="M0 0h24v24H0z"/></mask><g mask="url(#a)"><path d="M12 14.95c-.133 0-.258-.02-.374-.062a.877.877 0 0 1-.325-.213l-4.6-4.6a.948.948 0 0 1-.275-.7c0-.283.091-.516.275-.7a.948.948 0 0 1 .7-.275c.283 0 .516.092.7.275l3.9 3.9 3.9-3.9a.948.948 0 0 1 .7-.275c.283 0 .516.092.7.275a.948.948 0 0 1 .275.7.948.948 0 0 1-.275.7l-4.6 4.6c-.1.1-.209.171-.325.213a1.106 1.106 0 0 1-.375.062Z" fill="#7A7A7A"/></g></svg>