<svg width="46" height="46" fill="none" xmlns="http://www.w3.org/2000/svg"><rect width="46" height="46" rx="23" fill="#fff"/><path d="M21.351 24.681a.967.967 0 0 1-.72-.299 1.015 1.015 0 0 1-.292-.738v-5.537c0-.293.097-.54.291-.738a.967.967 0 0 1 .721-.299h4c.287 0 .527.1.722.299.194.199.291.445.291.738v5.537c0 .294-.097.54-.291.739a.967.967 0 0 1-.722.298h-4Zm.094-1.133h3.813v-5.345h-3.813v5.345Zm8.732 4.886v-2.686c0-.293.098-.54.292-.739a.967.967 0 0 1 .721-.298h3.204v-2.19h-3.672a.527.527 0 0 1-.382-.16.545.545 0 0 1-.163-.404c0-.158.053-.293.157-.403a.524.524 0 0 1 .396-.165h3.757c.287 0 .527.1.721.299.195.199.292.445.292.738v2.215c0 .293-.097.54-.292.739a.967.967 0 0 1-.72.298h-3.205v2.189h3.664c.147 0 .277.057.387.17a.55.55 0 0 1 .166.396.542.542 0 0 1-.166.406.538.538 0 0 1-.387.161H30.73a.53.53 0 0 1-.396-.16.557.557 0 0 1-.157-.407ZM11.513 24.75a.963.963 0 0 1-.713-.307 1.01 1.01 0 0 1-.3-.73v-5.677c0-.28.1-.524.3-.73a.963.963 0 0 1 .713-.307h4.21c.275 0 .512.103.713.308.2.205.3.448.3.73v1.227a.507.507 0 0 1-.166.364.528.528 0 0 1-.387.167.524.524 0 0 1-.405-.16.577.577 0 0 1-.148-.406v-1.097h-4.024v5.486h4.024v-1.097a.59.59 0 0 1 .148-.397.508.508 0 0 1 .403-.17c.155 0 .287.057.394.17a.559.559 0 0 1 .161.397v1.192c0 .281-.1.524-.3.73a.963.963 0 0 1-.712.307h-4.211Z" fill="currentColor"/></svg>