<svg width="24" height="24" fill="none" xmlns="http://www.w3.org/2000/svg"><mask id="a" style="mask-type:alpha" maskUnits="userSpaceOnUse" x="0" y="0" width="24" height="24"><path fill="#D9D9D9" d="M0 0h24v24H0z"/></mask><g mask="url(#a)"><path d="m12 13.4-2.9 2.9a.948.948 0 0 1-.7.274.948.948 0 0 1-.7-.275.948.948 0 0 1-.274-.7c0-.283.091-.516.275-.7l2.9-2.9-2.9-2.875a.948.948 0 0 1-.275-.7c0-.283.091-.516.275-.7a.948.948 0 0 1 .7-.275c.283 0 .516.092.7.275l2.9 2.9 2.875-2.9a.948.948 0 0 1 .7-.275c.283 0 .516.092.7.275.2.2.3.438.3.713 0 .275-.1.504-.3.687L13.376 12l2.9 2.9a.949.949 0 0 1 .275.7.948.948 0 0 1-.275.7c-.2.2-.438.3-.713.3a.894.894 0 0 1-.687-.3L12 13.4Z" fill="#B3B3B3"/></g></svg>