<svg width="46" height="46" fill="none" xmlns="http://www.w3.org/2000/svg"><rect width="46" height="46" rx="23" fill="#fff"/><path d="M17.699 28.655h1.058v-7.46h-1.058v7.46Zm4.772 0h1.058v-11.31H22.47v11.31Zm4.772 0h1.058v-3.644h-1.058v3.644ZM14.827 33c-.512 0-.945-.176-1.298-.53A1.764 1.764 0 0 1 13 31.174V14.827c0-.512.177-.945.53-1.298A1.765 1.765 0 0 1 14.827 13h16.346c.512 0 .945.177 1.298.53.353.352.529.785.529 1.297v16.346c0 .512-.176.945-.53 1.298a1.761 1.761 0 0 1-1.297.529H14.827Zm0-1.058h16.346c.192 0 .369-.08.529-.24.16-.16.24-.337.24-.529V14.827a.736.736 0 0 0-.24-.529.736.736 0 0 0-.529-.24H14.827a.736.736 0 0 0-.529.24.736.736 0 0 0-.24.529v16.346c0 .192.08.369.24.529.16.16.337.24.529.24Z" fill="currentColor"/></svg>