<svg width="46" height="46" fill="none" xmlns="http://www.w3.org/2000/svg"><rect width="46" height="46" rx="23" fill="#fff"/><mask id="a" style="mask-type:alpha" maskUnits="userSpaceOnUse" x="8" y="8" width="30" height="30"><path fill="#D9D9D9" d="M8 8h30v30H8z"/></mask><g mask="url(#a)"><path d="m19.375 22.987 2.755-2.757-2.625-2.627-1.412 1.428-.718-.718 1.426-1.413-2.6-2.595-2.756 2.757 5.93 5.925Zm9.49 9.502 2.756-2.761-2.6-2.6-1.412 1.425-.717-.717 1.41-1.413-2.584-2.597-2.755 2.755 5.901 5.908Zm-11.995.229h-3.63v-3.632l5.411-5.412-6.602-6.612 4.133-4.158 6.66 6.634 5.565-5.57c.112-.111.23-.19.352-.238a1.094 1.094 0 0 1 .77 0c.123.047.24.127.353.239l2.103 2.174c.112.112.187.23.227.352a1.238 1.238 0 0 1 0 .759.909.909 0 0 1-.227.34l-5.52 5.53 6.584 6.631-4.137 4.15-6.626-6.605-5.416 5.418Zm-2.623-1.008h2.182l11.713-11.718-2.184-2.184-11.71 11.72v2.182Zm12.8-12.82-1.09-1.082 2.185 2.184-1.095-1.102Z" fill="#040404"/></g></svg>