<svg width="265" height="264" fill="none" xmlns="http://www.w3.org/2000/svg"><path d="m.352 131 5 2.887v-5.774l-5 2.887Zm264 0-5-2.887v5.774l5-2.887Zm-259.5 0v.5h255v-1h-255v.5Z" fill="url(#a)"/><path d="m134.352 261 2.886-5h-5.773l2.887 5Zm0-258h-.5v129h1V3h-.5Zm0 129h-.5v124.5h1V132h-.5Z" fill="url(#b)"/><path d="m.352 124 5.594-1.428-4.034-4.131L.352 124Zm127-124-5.595 1.428 4.034 4.13L127.352 0ZM3.572 120.856l.349.358L124.48 3.501l-.349-.357-.35-.358L3.222 120.499l.35.357Z" fill="url(#c)"/><path d="m141.352 0 1.471 5.583 4.099-4.066L141.352 0Zm123 124-1.472-5.583-4.099 4.066 5.571 1.517ZM144.521 3.195l-.355.352 116.662 117.61.354-.352.355-.352L144.876 2.843l-.355.352Z" fill="url(#d)"/><path d="m127.352 264-1.517-5.571-4.066 4.099 5.583 1.472Zm-127-126-.353.355 123.806 122.831.352-.355.352-.355L.704 137.645.352 138Z" fill="url(#e)"/><path d="m141.352 264 5.558-1.561-4.131-4.033-1.427 5.594Zm3.143-3.22.358.349 119.856-122.78-.357-.349-.358-.349-119.857 122.78.358.349Z" fill="url(#f)"/><defs><linearGradient id="a" x1="245.494" y1="132" x2="244.807" y2="118.485" gradientUnits="userSpaceOnUse"><stop stop-color="#818FFE"/><stop offset="1" stop-color="#81FEE5"/></linearGradient><linearGradient id="b" x1="133.352" y1="242.571" x2="146.865" y2="241.868" gradientUnits="userSpaceOnUse"><stop stop-color="#818FFE"/><stop offset="1" stop-color="#81FEE5"/></linearGradient><linearGradient id="c" x1="118.979" y1="9.573" x2="108.837" y2=".645" gradientUnits="userSpaceOnUse"><stop stop-color="#818FFE"/><stop offset="1" stop-color="#81FEE5"/></linearGradient><linearGradient id="d" x1="254.856" y1="115.847" x2="263.689" y2="105.626" gradientUnits="userSpaceOnUse"><stop stop-color="#818FFE"/><stop offset="1" stop-color="#81FEE5"/></linearGradient><linearGradient id="e" x1="117.576" y1="255.71" x2="126.347" y2="245.432" gradientUnits="userSpaceOnUse"><stop stop-color="#818FFE"/><stop offset="1" stop-color="#81FEE5"/></linearGradient><linearGradient id="f" x1="256.281" y1="147.699" x2="245.924" y2="139.024" gradientUnits="userSpaceOnUse"><stop stop-color="#818FFE"/><stop offset="1" stop-color="#81FEE5"/></linearGradient></defs></svg>