<svg width="46" height="46" fill="none" xmlns="http://www.w3.org/2000/svg"><rect width="46" height="46" rx="23" fill="#fff"/><path d="m22.83 32.8 3.899-11.511h-3.42v-8.307L19.41 24.547h3.42v8.254Zm.175 2.7c-1.736 0-3.365-.323-4.886-.97a12.465 12.465 0 0 1-3.98-2.665 12.445 12.445 0 0 1-2.668-3.976c-.647-1.52-.971-3.149-.971-4.884 0-1.732.323-3.36.97-4.881a12.465 12.465 0 0 1 2.665-3.98 12.489 12.489 0 0 1 3.976-2.67c1.52-.65 3.149-.974 4.884-.974 1.732 0 3.36.324 4.881.973a12.497 12.497 0 0 1 3.98 2.668 12.494 12.494 0 0 1 2.67 3.976c.65 1.52.974 3.146.974 4.878 0 1.736-.324 3.365-.973 4.886a12.498 12.498 0 0 1-2.668 3.98 12.45 12.45 0 0 1-3.976 2.668c-1.52.647-3.146.971-4.878.971ZM23 34.325c3.157 0 5.834-1.099 8.03-3.295 2.197-2.196 3.295-4.873 3.295-8.03 0-3.157-1.099-5.834-3.295-8.03-2.196-2.197-4.873-3.295-8.03-3.295-3.157 0-5.834 1.098-8.03 3.295-2.197 2.196-3.295 4.873-3.295 8.03 0 3.157 1.098 5.834 3.295 8.03 2.196 2.197 4.873 3.295 8.03 3.295Z" fill="#040404"/></svg>