<svg width="32" height="32" fill="none" xmlns="http://www.w3.org/2000/svg"><g clip-path="url(#a)"><rect width="32" height="32" rx="4" fill="#1A1A1A"/><path d="m12.71 32 .023-11.43H9.322v-4.073h3.41v-2.375h-.016l.004-.34c.01-1.04.067-2.253.405-3.374.354-1.168.969-2.09 1.881-2.821a5.953 5.953 0 0 1 2.703-1.203c.706-.122 1.446-.18 2.264-.18.95 0 1.99.08 3.177.245l.29.04v3.823l-.794.006-1.197.008c-.847.007-1.733.1-2.477.734-.736.629-1.122 1.606-1.116 2.827l-.017 2.19-.003.42h5.268l-.782 4.215h-4.415L17.89 32h-5.18Z" fill="#fff"/></g><defs><clipPath id="a"><rect width="32" height="32" rx="4" fill="#fff"/></clipPath></defs></svg>