<svg width="46" height="46" fill="none" xmlns="http://www.w3.org/2000/svg"><rect width="46" height="46" rx="23" fill="#fff"/><mask id="a" style="mask-type:alpha" maskUnits="userSpaceOnUse" x="7" y="7" width="32" height="32"><path fill="#D9D9D9" d="M7 7h32v32H7z"/></mask><g mask="url(#a)"><path d="m31.136 31.904-7.643-7.643c-.61.52-1.312.922-2.106 1.207a7.037 7.037 0 0 1-2.392.427c-1.955 0-3.61-.677-4.964-2.03C12.677 22.51 12 20.858 12 18.904c0-1.954.677-3.61 2.03-4.966 1.354-1.356 3.008-2.034 4.961-2.034 1.954 0 3.61.677 4.966 2.031 1.356 1.355 2.034 3.01 2.034 4.965 0 .848-.15 1.669-.451 2.462-.3.793-.695 1.472-1.183 2.035L32 31.041l-.864.863Zm-12.14-7.23c1.619 0 2.986-.557 4.101-1.672 1.115-1.115 1.673-2.482 1.673-4.102s-.558-2.987-1.673-4.102c-1.115-1.116-2.482-1.673-4.102-1.673s-2.987.557-4.102 1.673c-1.115 1.114-1.672 2.482-1.672 4.102s.557 2.987 1.672 4.102c1.115 1.115 2.482 1.672 4.102 1.672Z" fill="#040404"/></g></svg>