<svg xmlns="http://www.w3.org/2000/svg" width="56" height="56" fill="none"><rect x="56" width="56" height="56" rx="28" transform="rotate(90 56 0)" fill="#fff"/><mask id="a" style="mask-type:luminance" maskUnits="userSpaceOnUse" x="15" y="14" width="26" height="28"><path d="M15.555 14.563h24.82v26.86h-24.82v-26.86Z" fill="#fff"/></mask><g mask="url(#a)"><path d="M39.876 14.336a.745.745 0 0 1 .628 1.15l-8.8 13.72v5.738a.745.745 0 0 1-.125.414l-.093.114-5.945 5.959a.746.746 0 0 1-.815.16v-.001a.745.745 0 0 1-.457-.688V29.204l-8.8-13.718a.748.748 0 0 1 .628-1.15h23.779ZM25.642 28.582h-.001c.077.12.119.26.119.403V39.1l4.454-4.465v-5.649a.74.74 0 0 1 .118-.403l8.18-12.754h-21.05l8.18 12.754Z" fill="#000" stroke="#000" stroke-width=".5"/></g></svg>