<svg xmlns="http://www.w3.org/2000/svg" width="34" height="34" fill="none"><mask id="a" style="mask-type:luminance" maskUnits="userSpaceOnUse" x="3" y="3" width="28" height="28"><path d="M3.79 3.787h26.35v26.35H3.79V3.787Z" fill="#fff"/></mask><g mask="url(#a)"><path d="M16.963 3.777a13.117 13.117 0 0 0-3.826.569 12.937 12.937 0 0 0-2.388.989A13.287 13.287 0 0 0 8.601 6.77a13.31 13.31 0 0 0-1.828 1.828 13.36 13.36 0 0 0-1.436 2.148 13.413 13.413 0 0 0-.988 2.388 13.009 13.009 0 0 0-.505 2.535 13.116 13.116 0 0 0 0 2.585 13.261 13.261 0 0 0 .94 3.752 13.18 13.18 0 0 0 8.353 7.57 13.065 13.065 0 0 0 2.535.505 13.103 13.103 0 0 0 3.864-.19 12.997 12.997 0 0 0 2.473-.75 13.215 13.215 0 0 0 5.146-3.816 13.217 13.217 0 0 0 2.93-7.072 13.103 13.103 0 0 0-.945-6.335A13.3 13.3 0 0 0 27.15 8.6a13.283 13.283 0 0 0-2.865-2.597 13.123 13.123 0 0 0-3.496-1.656 13.262 13.262 0 0 0-3.826-.57Zm0 25.175a12.101 12.101 0 0 1-2.339-.23A11.998 11.998 0 0 1 5.03 15.785c.04-.39.097-.779.173-1.164a12.036 12.036 0 0 1 2.492-5.267 12.088 12.088 0 0 1 2.607-2.363 12.13 12.13 0 0 1 2.074-1.108 12.036 12.036 0 0 1 3.413-.855 12.11 12.11 0 0 1 2.351 0 12.1 12.1 0 0 1 3.413.855 12.01 12.01 0 0 1 5.382 4.416 12.102 12.102 0 0 1 1.108 2.073 11.959 11.959 0 0 1 .68 6.928 12.115 12.115 0 0 1-.684 2.248 12.102 12.102 0 0 1-1.81 3.018 12.078 12.078 0 0 1-4.678 3.47 12.068 12.068 0 0 1-4.588.916Z" fill="#000"/></g><path d="M21.761 12.158a.587.587 0 0 0-.421-.176.592.592 0 0 0-.422.176l-3.962 3.962-3.962-3.962a.593.593 0 0 0-.843 0 .592.592 0 0 0-.13.649c.03.073.074.138.13.194l3.962 3.962-3.962 3.962a.591.591 0 0 0-.13.65.59.59 0 0 0 .323.322.597.597 0 0 0 .65-.129l3.962-3.962 3.962 3.962a.592.592 0 0 0 .65.13.586.586 0 0 0 .323-.323.597.597 0 0 0-.13-.65L17.8 16.963 21.761 13a.6.6 0 0 0 .13-.65.607.607 0 0 0-.13-.193Z" fill="#fff"/></svg>