<svg xmlns="http://www.w3.org/2000/svg" width="33" height="33" fill="none"><path d="m18.668 10.965-2.967 2.967-1.32-1.32a.458.458 0 0 0-.326-.129.457.457 0 0 0-.425.285.47.47 0 0 0 .094.503l1.648 1.648a.46.46 0 0 0 .329.135.467.467 0 0 0 .33-.135l3.296-3.296a.46.46 0 0 0 .13-.327.463.463 0 0 0-.136-.325.468.468 0 0 0-.653-.006Z" fill="#000"/><path d="M22.55 12.943a6.112 6.112 0 0 0-.116-1.176 6.022 6.022 0 0 0-.9-2.17 6.108 6.108 0 0 0-.75-.913 5.806 5.806 0 0 0-.912-.75 5.819 5.819 0 0 0-1.042-.556 5.872 5.872 0 0 0-1.129-.344 6.116 6.116 0 0 0-1.176-.116c-7.993.327-7.99 11.724 0 12.05a6.116 6.116 0 0 0 2.305-.46 6.04 6.04 0 0 0 1.954-1.306 6.108 6.108 0 0 0 1.053-1.42 6.144 6.144 0 0 0 .598-1.664 6.141 6.141 0 0 0 .116-1.175Zm-6.025 5.094a5.077 5.077 0 0 1-1.949-.389 5.171 5.171 0 0 1-.88-.47 5.206 5.206 0 0 1-1.107-1.004 5.238 5.238 0 0 1-.556-.83 5.406 5.406 0 0 1-.213-.452 5.281 5.281 0 0 1-.364-1.45 5.117 5.117 0 0 1-.024-.499c.278-6.758 9.91-6.756 10.187 0a5.086 5.086 0 0 1-4.594 5.069 5.077 5.077 0 0 1-.5.025Z" fill="#000"/><mask id="a" style="mask-type:luminance" maskUnits="userSpaceOnUse" x="5" y="3" width="23" height="27"><path d="M5.61 3.52h21.78V29.7H5.61V3.52Z" fill="#fff"/></mask><g mask="url(#a)"><path d="m27.303 25.849-3.37-5.843c-.211.12-.43.22-.657.302a1.18 1.18 0 0 0-.196.089l2.738 4.744-3.437-1.397a.45.45 0 0 0-.206-.032.434.434 0 0 0-.2.061.503.503 0 0 0-.152.144.421.421 0 0 0-.049.093.417.417 0 0 0-.025.102l-.512 3.67c-.425-.737-2.826-4.89-3.185-5.519a3.42 3.42 0 0 0 1.045.006 3.46 3.46 0 0 0 1.455-.565 3.417 3.417 0 0 0 .766-.71 3.43 3.43 0 0 0 .295-.435c.379-.739 1.142-1.046 1.854-1.358a3.478 3.478 0 0 0 .846-.663 3.463 3.463 0 0 0 .798-1.391 3.455 3.455 0 0 0 .144-1.065c-.003-.18-.02-.36-.052-.537a2.486 2.486 0 0 1-.002-.888c.051-.296.154-.575.305-.835a3.464 3.464 0 0 0 .416-1.14c.035-.201.053-.403.052-.607a3.487 3.487 0 0 0-.819-2.246 3.515 3.515 0 0 0-.431-.43 2.591 2.591 0 0 1-.876-1.518 3.499 3.499 0 0 0-2.242-2.676 3.469 3.469 0 0 0-1.194-.21c-.301 0-.593-.053-.877-.156a2.55 2.55 0 0 1-.77-.446 3.508 3.508 0 0 0-2.246-.817 3.489 3.489 0 0 0-2.243.817 2.555 2.555 0 0 1-1.649.601 3.5 3.5 0 0 0-2.674 1.248 3.465 3.465 0 0 0-.762 1.639A2.605 2.605 0 0 1 8.316 9.4a3.52 3.52 0 0 0-.782.927 3.467 3.467 0 0 0-.47 1.748 3.427 3.427 0 0 0 .211 1.195c.07.192.157.376.258.553.152.259.253.537.305.834a2.5 2.5 0 0 1-.002.888 3.5 3.5 0 0 0 .767 2.851 3.459 3.459 0 0 0 .93.78c.177.102.36.187.551.257a2.544 2.544 0 0 1 1.342 1.126 3.439 3.439 0 0 0 1.276 1.28 3.472 3.472 0 0 0 2.286.424l-.564.974-2.62 4.544-.513-3.67a.461.461 0 0 0-.227-.339.5.5 0 0 0-.2-.06.451.451 0 0 0-.206.032L7.22 25.141l2.738-4.744a1.174 1.174 0 0 0-.195-.089 4.24 4.24 0 0 1-.657-.302l-3.371 5.843a.454.454 0 0 0-.062.278.462.462 0 0 0 .357.407c.096.024.19.017.282-.02l4.14-1.685.615 4.424a.454.454 0 0 0 .124.251.459.459 0 0 0 .526.102.447.447 0 0 0 .21-.186l3.656-6.333.652-1.126c.189-.023.378-.023.568 0l.651 1.132 3.655 6.327c.05.086.12.15.212.19a.45.45 0 0 0 .282.034.444.444 0 0 0 .248-.136.449.449 0 0 0 .12-.255l.615-4.424 4.138 1.686a.458.458 0 0 0 .282.017.46.46 0 0 0 .24-.148.458.458 0 0 0 .113-.259.458.458 0 0 0-.057-.276Z" fill="#000"/></g></svg>