<svg xmlns="http://www.w3.org/2000/svg" width="30" height="30" fill="none"><mask id="a" style="mask-type:luminance" maskUnits="userSpaceOnUse" x="3" y="3" width="24" height="26"><path d="M26.166 3.895v24.2h-22.4v-24.2h22.4Z" fill="#fff" stroke="#fff" stroke-width=".5"/></mask><g mask="url(#a)"><path d="M25.481 3.916a.687.687 0 0 1 .58 1.06h-.001L18.3 17.074v5.055a.687.687 0 0 1-.201.486l-5.245 5.258a.687.687 0 0 1-.748.148v.002a.688.688 0 0 1-.425-.636V17.073L3.92 4.976a.689.689 0 0 1 .578-1.06H25.48ZM5.758 5.292l7.187 11.207c.072.11.11.24.11.372v8.853l3.87-3.88V16.87a.69.69 0 0 1 .11-.372l7.189-11.207H5.758Z" fill="#000" stroke="#000" stroke-width=".5"/></g></svg>