<svg width="48" height="48" fill="none" xmlns="http://www.w3.org/2000/svg"><rect width="48" height="48" rx="24" transform="matrix(-1 0 0 1 48 0)" fill="#fff"/><path d="M24.384 12.49c2.176 0 3.915.598 5.216 1.793 1.323 1.194 1.984 2.826 1.984 4.896 0 2.154-.683 3.776-2.048 4.864s-3.179 1.632-5.44 1.632l-.128 2.528H20.8l-.16-5.024h1.056c2.07 0 3.648-.278 4.736-.832 1.11-.555 1.664-1.61 1.664-3.168 0-1.13-.33-2.016-.992-2.656-.64-.64-1.536-.96-2.688-.96-1.152 0-2.059.31-2.72.928-.661.618-.992 1.482-.992 2.592H17.28c0-1.28.288-2.422.864-3.424.576-1.003 1.397-1.782 2.464-2.336 1.088-.555 2.347-.832 3.776-.832Zm-2.048 22.785c-.661 0-1.216-.224-1.664-.672-.448-.448-.672-1.003-.672-1.664 0-.662.224-1.216.672-1.664.448-.448 1.003-.672 1.664-.672.64 0 1.184.224 1.632.672.448.448.672 1.002.672 1.664 0 .661-.224 1.216-.672 1.664a2.222 2.222 0 0 1-1.632.672Z" fill="#000"/></svg>