<svg width="266" height="24" fill="none" xmlns="http://www.w3.org/2000/svg"><path d="M1.124 2.97a1.08 1.08 0 0 1-.792-.33c-.22-.22-.33-.491-.33-.814 0-.323.11-.587.33-.792.22-.22.484-.33.792-.33.308 0 .572.11.792.33.22.205.33.47.33.792 0 .323-.11.594-.33.814-.22.22-.484.33-.792.33Zm.77 2.266v12.012H.354V5.236h1.54Zm9.12-.22c1.436 0 2.61.447 3.52 1.342.908.88 1.363 2.163 1.363 3.85v7.04H14.38v-6.864c0-1.305-.33-2.303-.99-2.992-.645-.69-1.533-1.034-2.662-1.034-1.159 0-2.083.367-2.772 1.1-.69.733-1.034 1.811-1.034 3.234v6.556h-1.54V5.236h1.54v2.046a3.866 3.866 0 0 1 1.65-1.672c.719-.396 1.533-.594 2.442-.594Zm10.291 1.518v7.458c0 .733.14 1.24.418 1.518.279.279.77.418 1.474.418h1.408v1.32h-1.65c-1.085 0-1.892-.25-2.42-.748-.528-.513-.792-1.35-.792-2.508V6.534h-1.672V5.236h1.672V2.222h1.562v3.014h3.3v1.298h-3.3Zm16.708 4.092c0 .528-.015.931-.044 1.21h-9.966c.044.91.264 1.687.66 2.332a3.964 3.964 0 0 0 1.562 1.474c.645.323 1.35.484 2.112.484.997 0 1.833-.242 2.508-.726a3.393 3.393 0 0 0 1.364-1.958h1.628a5.118 5.118 0 0 1-1.892 2.882c-.954.733-2.156 1.1-3.608 1.1-1.13 0-2.142-.25-3.036-.748a5.528 5.528 0 0 1-2.112-2.156c-.499-.939-.748-2.031-.748-3.278 0-1.247.25-2.34.748-3.278a5.193 5.193 0 0 1 2.09-2.156c.894-.499 1.914-.748 3.058-.748s2.141.25 2.992.748a5.053 5.053 0 0 1 1.98 2.024c.47.836.704 1.767.704 2.794Zm-1.562-.044c.014-.895-.169-1.657-.55-2.288a3.57 3.57 0 0 0-1.518-1.43 4.656 4.656 0 0 0-2.112-.484c-1.144 0-2.12.367-2.926 1.1-.807.733-1.254 1.767-1.342 3.102h8.448Zm9.417-5.522c1.13 0 2.112.264 2.948.792.836.528 1.438 1.195 1.804 2.002V5.236h1.54v12.32c0 1.1-.242 2.075-.726 2.926a4.804 4.804 0 0 1-1.98 1.958c-.85.47-1.818.704-2.904.704-1.54 0-2.823-.367-3.85-1.1-1.012-.733-1.642-1.73-1.892-2.992h1.518a3.711 3.711 0 0 0 1.496 2.002c.748.499 1.658.748 2.728.748.778 0 1.474-.169 2.09-.506a3.464 3.464 0 0 0 1.452-1.452c.352-.645.528-1.408.528-2.288v-2.97c-.381.821-.99 1.503-1.826 2.046-.821.528-1.796.792-2.926.792-1.1 0-2.09-.257-2.97-.77-.865-.513-1.547-1.24-2.046-2.178-.484-.939-.726-2.024-.726-3.256 0-1.232.242-2.31.726-3.234.499-.939 1.181-1.657 2.046-2.156.88-.513 1.87-.77 2.97-.77Zm4.752 6.182c0-.968-.198-1.819-.594-2.552a4.216 4.216 0 0 0-1.628-1.694 4.351 4.351 0 0 0-2.244-.594c-.85 0-1.613.19-2.288.572-.674.381-1.21.939-1.606 1.672-.381.719-.572 1.577-.572 2.574 0 .983.191 1.848.572 2.596.396.733.932 1.298 1.606 1.694.675.381 1.438.572 2.288.572.822 0 1.57-.198 2.244-.594a4.215 4.215 0 0 0 1.628-1.694c.396-.733.594-1.584.594-2.552Zm6.596-3.872a3.78 3.78 0 0 1 1.54-1.738c.704-.41 1.562-.616 2.574-.616v1.606h-.418c-1.115 0-2.01.3-2.684.902-.675.601-1.012 1.606-1.012 3.014v6.71h-1.54V5.236h1.54V7.37Zm5.727 3.85c0-1.232.242-2.31.726-3.234.498-.939 1.18-1.657 2.046-2.156.88-.513 1.87-.77 2.97-.77 1.144 0 2.126.264 2.948.792.836.528 1.437 1.203 1.804 2.024v-2.64h1.54v12.012h-1.54v-2.662c-.382.821-.99 1.503-1.826 2.046-.822.528-1.804.792-2.948.792-1.086 0-2.068-.257-2.948-.77-.866-.513-1.548-1.24-2.046-2.178-.484-.939-.726-2.024-.726-3.256Zm10.494.022c0-.968-.198-1.819-.594-2.552a4.215 4.215 0 0 0-1.628-1.694 4.35 4.35 0 0 0-2.244-.594c-.85 0-1.614.19-2.288.572-.675.381-1.21.939-1.606 1.672-.382.719-.572 1.577-.572 2.574 0 .983.19 1.848.572 2.596.396.733.931 1.298 1.606 1.694.674.381 1.437.572 2.288.572a4.35 4.35 0 0 0 2.244-.594 4.215 4.215 0 0 0 1.628-1.694c.396-.733.594-1.584.594-2.552Zm7.057-4.708v7.458c0 .733.14 1.24.418 1.518.28.279.77.418 1.474.418h1.408v1.32h-1.65c-1.085 0-1.892-.25-2.42-.748-.528-.513-.792-1.35-.792-2.508V6.534H77.26V5.236h1.672V2.222h1.562v3.014h3.3v1.298h-3.3Zm16.708 4.092c0 .528-.014.931-.044 1.21h-9.966c.044.91.264 1.687.66 2.332a3.964 3.964 0 0 0 1.562 1.474c.646.323 1.35.484 2.112.484.998 0 1.834-.242 2.508-.726a3.392 3.392 0 0 0 1.364-1.958h1.628a5.117 5.117 0 0 1-1.892 2.882c-.953.733-2.156 1.1-3.608 1.1-1.13 0-2.141-.25-3.036-.748a5.53 5.53 0 0 1-2.112-2.156c-.498-.939-.748-2.031-.748-3.278 0-1.247.25-2.34.748-3.278a5.205 5.205 0 0 1 2.09-2.156c.895-.499 1.914-.748 3.058-.748s2.142.25 2.992.748a5.051 5.051 0 0 1 1.98 2.024c.47.836.704 1.767.704 2.794Zm-1.562-.044c.015-.895-.168-1.657-.55-2.288a3.568 3.568 0 0 0-1.518-1.43 4.656 4.656 0 0 0-2.112-.484c-1.144 0-2.12.367-2.926 1.1-.806.733-1.254 1.767-1.342 3.102h8.448Zm3.676.638c0-1.232.25-2.31.748-3.234.498-.939 1.18-1.657 2.046-2.156.88-.513 1.87-.77 2.97-.77 1.056 0 2.009.257 2.86.77.85.513 1.474 1.18 1.87 2.002V.968h1.54v16.28h-1.54v-2.684c-.367.836-.968 1.525-1.804 2.068-.836.528-1.819.792-2.948.792-1.1 0-2.09-.257-2.97-.77-.866-.513-1.548-1.24-2.046-2.178-.484-.939-.726-2.024-.726-3.256Zm10.494.022c0-.968-.198-1.819-.594-2.552a4.218 4.218 0 0 0-1.628-1.694 4.353 4.353 0 0 0-2.244-.594c-.851 0-1.614.19-2.288.572-.675.381-1.21.939-1.606 1.672-.382.719-.572 1.577-.572 2.574 0 .983.19 1.848.572 2.596.396.733.931 1.298 1.606 1.694.674.381 1.437.572 2.288.572.821 0 1.569-.198 2.244-.594a4.217 4.217 0 0 0 1.628-1.694c.396-.733.594-1.584.594-2.552Zm9.477 6.204c-.997 0-1.892-.176-2.684-.528-.792-.367-1.422-.858-1.892-1.474a3.756 3.756 0 0 1-.748-2.046h3.102c.059.47.286.858.682 1.166.411.308.917.462 1.518.462.587 0 1.042-.117 1.364-.352.338-.235.506-.535.506-.902 0-.396-.205-.69-.616-.88-.396-.205-1.034-.425-1.914-.66-.909-.22-1.657-.447-2.244-.682a3.993 3.993 0 0 1-1.496-1.078c-.41-.484-.616-1.137-.616-1.958 0-.675.191-1.29.572-1.848.396-.557.954-.997 1.672-1.32.734-.323 1.592-.484 2.574-.484 1.452 0 2.611.367 3.476 1.1.866.719 1.342 1.694 1.43 2.926h-2.948c-.044-.484-.249-.865-.616-1.144-.352-.293-.828-.44-1.43-.44-.557 0-.99.103-1.298.308a.99.99 0 0 0-.44.858c0 .41.206.726.616.946.411.205 1.049.418 1.914.638.88.22 1.606.447 2.178.682a3.714 3.714 0 0 1 1.474 1.1c.426.484.646 1.13.66 1.936 0 .704-.198 1.335-.594 1.892-.381.557-.938.997-1.672 1.32-.718.308-1.562.462-2.53.462ZM138.118 5.06v12.188h-3.102v-1.54a4.144 4.144 0 0 1-1.562 1.254c-.631.293-1.32.44-2.068.44-.954 0-1.797-.198-2.53-.594-.734-.41-1.313-1.005-1.738-1.782-.411-.792-.616-1.73-.616-2.816V5.06h3.08v6.71c0 .968.242 1.716.726 2.244.484.513 1.144.77 1.98.77.85 0 1.518-.257 2.002-.77.484-.528.726-1.276.726-2.244V5.06h3.102Zm7.703 12.386c-.998 0-1.892-.176-2.684-.528-.792-.367-1.423-.858-1.892-1.474a3.748 3.748 0 0 1-.748-2.046h3.102c.058.47.286.858.682 1.166.41.308.916.462 1.518.462.586 0 1.041-.117 1.364-.352.337-.235.506-.535.506-.902 0-.396-.206-.69-.616-.88-.396-.205-1.034-.425-1.914-.66-.91-.22-1.658-.447-2.244-.682a3.985 3.985 0 0 1-1.496-1.078c-.411-.484-.616-1.137-.616-1.958 0-.675.19-1.29.572-1.848.396-.557.953-.997 1.672-1.32.733-.323 1.591-.484 2.574-.484 1.452 0 2.61.367 3.476 1.1.865.719 1.342 1.694 1.43 2.926h-2.948c-.044-.484-.25-.865-.616-1.144-.352-.293-.829-.44-1.43-.44-.558 0-.99.103-1.298.308a.987.987 0 0 0-.44.858c0 .41.205.726.616.946.41.205 1.048.418 1.914.638.88.22 1.606.447 2.178.682a3.72 3.72 0 0 1 1.474 1.1c.425.484.645 1.13.66 1.936 0 .704-.198 1.335-.594 1.892-.382.557-.939.997-1.672 1.32-.719.308-1.562.462-2.53.462Zm10.91-9.856v5.896c0 .41.095.711.286.902.205.176.543.264 1.012.264h1.43v2.596h-1.936c-2.596 0-3.894-1.261-3.894-3.784V7.59h-1.452V5.06h1.452V2.046h3.102V5.06h2.728v2.53h-2.728Zm4.151 3.52c0-1.232.242-2.325.726-3.278.499-.953 1.166-1.687 2.002-2.2.851-.513 1.797-.77 2.838-.77.91 0 1.702.183 2.376.55.69.367 1.24.829 1.65 1.386V5.06h3.102v12.188h-3.102v-1.782c-.396.572-.946 1.049-1.65 1.43-.689.367-1.488.55-2.398.55a5.237 5.237 0 0 1-2.816-.792c-.836-.528-1.503-1.269-2.002-2.222-.484-.968-.726-2.075-.726-3.322Zm9.592.044c0-.748-.146-1.386-.44-1.914a3.006 3.006 0 0 0-1.188-1.232 3.112 3.112 0 0 0-1.606-.44c-.572 0-1.1.14-1.584.418-.484.279-.88.69-1.188 1.232-.293.528-.44 1.159-.44 1.892 0 .733.147 1.379.44 1.936.308.543.704.96 1.188 1.254a3.08 3.08 0 0 0 1.584.44c.572 0 1.108-.14 1.606-.418a3.195 3.195 0 0 0 1.188-1.232c.294-.543.44-1.188.44-1.936Zm7.672-7.546c-.542 0-.997-.169-1.364-.506a1.764 1.764 0 0 1-.528-1.298c0-.513.176-.939.528-1.276.367-.352.822-.528 1.364-.528.543 0 .99.176 1.342.528.367.337.55.763.55 1.276s-.183.946-.55 1.298c-.352.337-.799.506-1.342.506Zm1.518 1.452v12.188h-3.08V5.06h3.08Zm9.797-.176c1.452 0 2.626.462 3.52 1.386.895.91 1.342 2.185 1.342 3.828v7.15h-3.08v-6.732c0-.968-.242-1.709-.726-2.222-.484-.528-1.144-.792-1.98-.792-.85 0-1.525.264-2.024.792-.484.513-.726 1.254-.726 2.222v6.732h-3.08V5.06h3.08v1.518a4.184 4.184 0 0 1 1.562-1.232 4.844 4.844 0 0 1 2.112-.462Zm6.999 6.226c0-1.232.242-2.325.726-3.278.499-.953 1.166-1.687 2.002-2.2.851-.513 1.797-.77 2.838-.77.91 0 1.702.183 2.376.55.69.367 1.24.829 1.65 1.386V5.06h3.102v12.188h-3.102v-1.782c-.396.572-.946 1.049-1.65 1.43-.689.367-1.488.55-2.398.55a5.237 5.237 0 0 1-2.816-.792c-.836-.528-1.503-1.269-2.002-2.222-.484-.968-.726-2.075-.726-3.322Zm9.592.044c0-.748-.146-1.386-.44-1.914a3.006 3.006 0 0 0-1.188-1.232 3.112 3.112 0 0 0-1.606-.44c-.572 0-1.1.14-1.584.418-.484.279-.88.69-1.188 1.232-.293.528-.44 1.159-.44 1.892 0 .733.147 1.379.44 1.936.308.543.704.96 1.188 1.254a3.08 3.08 0 0 0 1.584.44c.572 0 1.108-.14 1.606-.418a3.195 3.195 0 0 0 1.188-1.232c.294-.543.44-1.188.44-1.936Zm9.191-4.312c.396-.587.938-1.063 1.628-1.43.704-.367 1.503-.55 2.398-.55 1.041 0 1.98.257 2.816.77.85.513 1.518 1.247 2.002 2.2.498.939.748 2.031.748 3.278 0 1.247-.25 2.354-.748 3.322-.484.953-1.152 1.694-2.002 2.222-.836.528-1.775.792-2.816.792-.91 0-1.709-.176-2.398-.528a4.757 4.757 0 0 1-1.628-1.408v1.738h-3.08V.968h3.08v5.874Zm6.446 4.268c0-.733-.154-1.364-.462-1.892a3.018 3.018 0 0 0-1.188-1.232 3.12 3.12 0 0 0-1.584-.418c-.558 0-1.086.147-1.584.44-.484.279-.88.69-1.188 1.232-.294.543-.44 1.18-.44 1.914 0 .733.146 1.371.44 1.914.308.543.704.96 1.188 1.254a3.195 3.195 0 0 0 1.584.418 3 3 0 0 0 1.584-.44 3.17 3.17 0 0 0 1.188-1.254c.308-.543.462-1.188.462-1.936Zm6.946-7.502c-.543 0-.998-.169-1.364-.506a1.764 1.764 0 0 1-.528-1.298c0-.513.176-.939.528-1.276.366-.352.821-.528 1.364-.528.542 0 .99.176 1.342.528.366.337.55.763.55 1.276s-.184.946-.55 1.298c-.352.337-.8.506-1.342.506Zm1.518 1.452v12.188h-3.08V5.06h3.08Zm6.123-4.092v16.28h-3.08V.968h3.08Zm4.605 2.64c-.543 0-.998-.169-1.364-.506a1.764 1.764 0 0 1-.528-1.298c0-.513.176-.939.528-1.276.366-.352.821-.528 1.364-.528.542 0 .99.176 1.342.528.366.337.55.763.55 1.276s-.184.946-.55 1.298c-.352.337-.8.506-1.342.506Zm1.518 1.452v12.188h-3.08V5.06h3.08Zm6.629 2.53v5.896c0 .41.095.711.286.902.205.176.542.264 1.012.264h1.43v2.596h-1.936c-2.596 0-3.894-1.261-3.894-3.784V7.59h-1.452V5.06h1.452V2.046h3.102V5.06h2.728v2.53h-2.728Zm16.603-2.53-7.546 17.952h-3.278l2.64-6.072-4.884-11.88h3.454l3.146 8.514 3.19-8.514h3.278Z" fill="#fff"/></svg>