<svg width="46" height="46" fill="none" xmlns="http://www.w3.org/2000/svg"><rect width="46" height="46" rx="23" fill="#fff"/><path d="M23.312 32.377a9.283 9.283 0 0 1-3.486-.656 10.009 10.009 0 0 1-2.921-1.789l-2.937 2.884a.5.5 0 0 1-.396.184.537.537 0 0 1-.406-.175.57.57 0 0 1-.166-.405c0-.154.055-.283.166-.388l2.902-2.907a10.087 10.087 0 0 1-1.796-2.944 9.379 9.379 0 0 1-.648-3.493c0-2.704.938-4.995 2.815-6.872C18.316 13.939 20.607 13 23.312 13h8.464c.338 0 .627.117.866.351.239.235.358.526.358.873v8.464c0 2.693-.938 4.98-2.815 6.864-1.878 1.883-4.168 2.825-6.873 2.825Zm0-1.172c2.366 0 4.377-.828 6.033-2.484 1.656-1.656 2.484-3.667 2.484-6.033v-8.517h-8.517c-2.366 0-4.377.828-6.033 2.485-1.656 1.655-2.484 3.666-2.484 6.032a8.477 8.477 0 0 0 2.094 5.615l7.35-7.343a.522.522 0 0 1 .396-.166c.16 0 .297.06.412.182a.554.554 0 0 1-.007.803l-7.343 7.316a8.48 8.48 0 0 0 2.566 1.55 8.36 8.36 0 0 0 3.049.56Z" fill="currentColor"/></svg>