<svg width="56" height="56" fill="none" xmlns="http://www.w3.org/2000/svg"><g clip-path="url(#a)"><path d="M35.803 22.285c6.503 0 7.706 4.282 7.706 9.854v11.345h-6.421V33.427c0-2.4-.048-5.487-3.343-5.487-3.345 0-3.855 2.614-3.855 5.312v10.232h-6.421V22.8h6.163v2.826h.087c.857-1.627 2.956-3.34 6.084-3.34ZM19.435 43.483H13V22.8h6.435v20.684Zm-3.216-30.967a3.728 3.728 0 1 1-.004 7.456 3.728 3.728 0 0 1 .004-7.456Z" fill="url(#b)"/></g><defs><linearGradient id="b" x1="41.293" y1="43.484" x2="10.178" y2="41.164" gradientUnits="userSpaceOnUse"><stop stop-color="#818FFE"/><stop offset="1" stop-color="#81FEE5"/></linearGradient><clipPath id="a"><path fill="#fff" d="M0 0h56v56H0z"/></clipPath></defs></svg>