<svg width="32" height="32" fill="none" xmlns="http://www.w3.org/2000/svg"><g clip-path="url(#a)"><rect width="32" height="32" rx="4" fill="#1A1A1A"/><path d="M11.105 24.849H7.43v-11.82h3.676v11.82Zm9.354-12.114c3.716 0 4.403 2.447 4.403 5.631v6.483h-3.669v-5.747c0-1.37-.027-3.135-1.91-3.135-1.912 0-2.203 1.493-2.203 3.035v5.847h-3.669v-11.82h3.522v1.616h.05c.49-.93 1.689-1.91 3.476-1.91ZM9.268 7.152a2.131 2.131 0 0 1 0 4.261 2.13 2.13 0 1 1 0-4.26Z" fill="#fff"/></g><defs><clipPath id="a"><rect width="32" height="32" rx="4" fill="#fff"/></clipPath></defs></svg>