<svg width="23" height="17" fill="none" xmlns="http://www.w3.org/2000/svg"><mask id="a" style="mask-type:luminance" maskUnits="userSpaceOnUse" x="0" y="0" width="23" height="10"><path d="M.379 0h21.856v9.01H.379V0Z" fill="#fff"/></mask><g mask="url(#a)"><path d="M9.827 8.332a2.406 2.406 0 0 0 1.082.47 2.454 2.454 0 0 0 1.175-.097 2.452 2.452 0 0 0 .697-.373l9.375-7.305a2.4 2.4 0 0 0-.862-.755A2.387 2.387 0 0 0 20.18 0H2.431A2.393 2.393 0 0 0 .767.67C.618.813.49.97.383 1.145l9.444 7.187Z" fill="#fff"/></g><mask id="b" style="mask-type:luminance" maskUnits="userSpaceOnUse" x="0" y="2" width="23" height="15"><path d="M0 2.605h22.61V16.11H0V2.605Z" fill="#fff"/></mask><g mask="url(#b)"><path d="M13.767 9.611a4.04 4.04 0 0 1-4.922 0L.008 2.891v10.824a2.425 2.425 0 0 0 1.076 2.013 2.453 2.453 0 0 0 1.345.408h17.748a2.426 2.426 0 0 0 1.712-.71 2.441 2.441 0 0 0 .663-1.239c.03-.155.046-.313.046-.472V2.73l-8.831 6.881Z" fill="#fff"/></g></svg>