<svg width="22" height="22" fill="none" xmlns="http://www.w3.org/2000/svg"><rect width="22" height="22" rx="11" fill="#fff"/><g clip-path="url(#a)"><g clip-path="url(#b)"><path d="M15.861 5.88a.332.332 0 0 1 .168.1.351.351 0 0 1 .091.171c.012.066 0 .14-.052.203l.002.001-6.819 9.717-.038.053h-.065c-.05 0-.134.002-.203-.023a.234.234 0 0 1-.112-.08.229.229 0 0 1-.04-.109l-1.874-4.22-.024-.061c-.045-.142-.012-.275.088-.355a.277.277 0 0 1 .375.028l1.904 2.016 6.377-7.369.003-.004a.23.23 0 0 1 .22-.067Z" fill="#000" stroke="#000" stroke-width=".25"/></g></g><defs><clipPath id="a"><path fill="#fff" transform="rotate(-180 9.75 9.75)" d="M0 0h17v17H0z"/></clipPath><clipPath id="b"><path fill="#fff" transform="translate(4 3)" d="M0 0h16v16H0z"/></clipPath></defs></svg>