<svg width="46" height="46" fill="none" xmlns="http://www.w3.org/2000/svg"><rect width="46" height="46" rx="23" fill="#fff"/><g filter="url(#a)"><mask id="b" style="mask-type:alpha" maskUnits="userSpaceOnUse" x="8" y="8" width="30" height="30"><path fill="#D9D9D9" d="M8 8h30v30H8z"/></mask><g mask="url(#b)"><path d="m20.835 34.25-.487-3.59c-.44-.137-.92-.35-1.442-.64a6.986 6.986 0 0 1-1.325-.934l-3.314 1.47-2.17-3.826 2.923-2.178a11.47 11.47 0 0 1-.099-.764 7.991 7.991 0 0 1-.038-.764c0-.227.013-.472.038-.736.026-.264.059-.544.099-.84l-2.922-2.194 2.17-3.761 3.289 1.43c.41-.338.86-.648 1.35-.93.49-.282.962-.493 1.417-.632l.51-3.611h4.33l.488 3.614c.51.185.982.402 1.42.65a8.03 8.03 0 0 1 1.275.908l3.401-1.43 2.154 3.762-3.018 2.24c.072.279.115.542.13.79.015.247.023.486.023.716 0 .214-.012.444-.035.69a9.95 9.95 0 0 1-.12.843l2.986 2.197-2.17 3.825-3.351-1.493c-.427.364-.864.683-1.313.955-.448.274-.909.48-1.382.62l-.487 3.613h-4.33Zm.88-1.058h2.536l.461-3.445a7.082 7.082 0 0 0 1.741-.702 8.463 8.463 0 0 0 1.596-1.22l3.183 1.37 1.248-2.161-2.806-2.09c.09-.377.155-.719.196-1.026a7 7 0 0 0 .061-.918c0-.331-.02-.642-.059-.934a7.683 7.683 0 0 0-.198-.961l2.854-2.139-1.248-2.16-3.255 1.372c-.392-.436-.903-.843-1.533-1.223-.63-.38-1.23-.614-1.804-.702l-.403-3.445h-2.568l-.39 3.421a5.984 5.984 0 0 0-1.805.66c-.543.31-1.077.73-1.603 1.263l-3.2-1.346-1.247 2.16 2.798 2.064a4.89 4.89 0 0 0-.216.947 8.13 8.13 0 0 0-.065 1.047 7.188 7.188 0 0 0 .257 1.92l-2.774 2.09 1.248 2.16 3.175-1.348c.497.51 1.02.916 1.568 1.22a7.435 7.435 0 0 0 1.84.705l.412 3.421Zm1.226-7.163c.848 0 1.565-.293 2.15-.878.586-.586.878-1.303.878-2.151 0-.848-.292-1.565-.878-2.15-.585-.586-1.302-.879-2.15-.879-.84 0-1.554.293-2.144.878-.59.586-.885 1.303-.885 2.151 0 .848.295 1.565.885 2.15.59.586 1.304.879 2.143.879Z" fill="#040404"/></g></g><defs><filter id="a" x="8.098" y="11.75" width="29.804" height="30.5" filterUnits="userSpaceOnUse" color-interpolation-filters="sRGB"><feFlood flood-opacity="0" result="BackgroundImageFix"/><feColorMatrix in="SourceAlpha" values="0 0 0 0 0 0 0 0 0 0 0 0 0 0 0 0 0 0 127 0" result="hardAlpha"/><feOffset dy="4"/><feGaussianBlur stdDeviation="2"/><feComposite in2="hardAlpha" operator="out"/><feColorMatrix values="0 0 0 0 0 0 0 0 0 0 0 0 0 0 0 0 0 0 0.25 0"/><feBlend in2="BackgroundImageFix" result="effect1_dropShadow_6798_29350"/><feBlend in="SourceGraphic" in2="effect1_dropShadow_6798_29350" result="shape"/></filter></defs></svg>