<svg width="46" height="46" fill="none" xmlns="http://www.w3.org/2000/svg"><rect width="46" height="46" rx="23" fill="#fff"/><mask id="a" style="mask-type:alpha" maskUnits="userSpaceOnUse" x="7" y="7" width="32" height="32"><path fill="#D9D9D9" d="M7 7h32v32H7z"/></mask><g mask="url(#a)"><path d="M14.45 32.904c-.56 0-1.037-.2-1.43-.603a2.013 2.013 0 0 1-.59-1.461V14.524c0-.572.196-1.059.59-1.461.393-.402.87-.603 1.43-.603h5.874c-.114-.652.039-1.241.458-1.767.419-.526.968-.789 1.648-.789.695 0 1.252.263 1.672.789.419.526.563 1.115.433 1.767h5.875c.56 0 1.036.2 1.43.603.393.402.59.89.59 1.461V30.84c0 .572-.197 1.059-.59 1.461-.394.402-.87.603-1.43.603H14.45Zm0-1.278h15.96c.193 0 .37-.081.53-.245a.76.76 0 0 0 .24-.541V14.524a.76.76 0 0 0-.24-.54c-.16-.165-.337-.246-.53-.246H14.45c-.193 0-.37.082-.53.245a.76.76 0 0 0-.24.541V30.84c0 .197.08.377.24.54.16.165.337.247.53.247Zm2.355-3.489h7.5V26.86h-7.5v1.277Zm0-4.816h11.25v-1.278h-11.25v1.278Zm0-4.816h11.25v-1.278h-11.25v1.278Zm5.625-5.48a.9.9 0 0 0 .672-.272.942.942 0 0 0 .265-.686.942.942 0 0 0-.265-.687.9.9 0 0 0-.672-.272.9.9 0 0 0-.672.272.942.942 0 0 0-.266.687.94.94 0 0 0 .266.686.9.9 0 0 0 .672.272Z" fill="#040404"/></g></svg>