<svg width="32" height="32" fill="none" xmlns="http://www.w3.org/2000/svg"><g clip-path="url(#a)"><rect width="32" height="32" rx="4" fill="#1A1A1A"/><path d="M14.06 18.909v-5.818L19.1 16l-5.04 2.908Zm11.232-7.578a2.43 2.43 0 0 0-1.714-1.714C22.065 9.21 16 9.21 16 9.21s-6.065 0-7.578.406a2.43 2.43 0 0 0-1.714 1.714C6.302 12.843 6.302 16 6.302 16s0 3.155.406 4.667c.223.835.88 1.492 1.714 1.715 1.513.406 7.578.406 7.578.406s6.065 0 7.578-.406a2.43 2.43 0 0 0 1.715-1.715c.405-1.512.405-4.668.405-4.668s0-3.156-.405-4.669Z" fill="#fff"/></g><defs><clipPath id="a"><rect width="32" height="32" rx="4" fill="#fff"/></clipPath></defs></svg>