<svg width="56" height="56" fill="none" xmlns="http://www.w3.org/2000/svg"><g clip-path="url(#a)"><path d="M24.606 33.09V22.91L33.423 28l-8.817 5.09Zm19.656-13.26a4.253 4.253 0 0 0-3-3C38.613 16.12 28 16.12 28 16.12s-10.615 0-13.262.71a4.252 4.252 0 0 0-3 3c-.71 2.647-.71 8.17-.71 8.17s0 5.523.71 8.17a4.25 4.25 0 0 0 3 3c2.647.71 13.262.71 13.262.71s10.613 0 13.26-.71a4.251 4.251 0 0 0 3-3c.71-2.647.71-8.17.71-8.17s0-5.523-.71-8.17Z" fill="url(#b)"/></g><defs><linearGradient id="b" x1="42.547" y1="39.88" x2="8.693" y2="36.28" gradientUnits="userSpaceOnUse"><stop stop-color="#818FFE"/><stop offset="1" stop-color="#81FEE5"/></linearGradient><clipPath id="a"><path fill="#fff" d="M0 0h56v56H0z"/></clipPath></defs></svg>