<svg width="24" height="24" viewBox="0 0 24 24" fill="none" xmlns="http://www.w3.org/2000/svg">
<path d="M12.0404 15.3243C12.1752 15.3163 12.3034 15.2628 12.4044 15.1734L18.4498 9.7322C18.5699 9.62453 18.6424 9.47365 18.6512 9.31252C18.66 9.15138 18.6044 8.99392 18.496 8.8738C18.3883 8.75369 18.2367 8.68192 18.0756 8.67385C17.9144 8.6658 17.7569 8.72219 17.6376 8.82986L11.9979 13.907L6.35832 8.82986C6.23893 8.72219 6.08146 8.6658 5.92034 8.67385C5.7592 8.68191 5.60759 8.75369 5.49993 8.8738C5.39153 8.99392 5.33586 9.1514 5.34465 9.31252C5.35344 9.47364 5.42595 9.62454 5.54607 9.7322L11.5914 15.1734C11.7145 15.2826 11.8764 15.3375 12.0404 15.3243Z" fill="white"/>
</svg>
