<svg width="24" height="24" viewBox="0 0 24 24" fill="none" xmlns="http://www.w3.org/2000/svg">
<path d="M12.0404 8.67518C12.1752 8.68324 12.3034 8.73671 12.4044 8.82606L18.4498 14.2673C18.5699 14.375 18.6424 14.5259 18.6512 14.687C18.66 14.8481 18.6044 15.0056 18.496 15.1257C18.3883 15.2458 18.2367 15.3176 18.0756 15.3257C17.9144 15.3337 17.7569 15.2773 17.6376 15.1697L11.9979 10.0925L6.35832 15.1697C6.23893 15.2773 6.08146 15.3337 5.92034 15.3257C5.7592 15.3176 5.60759 15.2458 5.49993 15.1257C5.39153 15.0056 5.33586 14.8481 5.34465 14.687C5.35344 14.5259 5.42595 14.375 5.54607 14.2673L11.5914 8.82606C11.7145 8.71693 11.8764 8.662 12.0404 8.67518Z" fill="white"/>
</svg>
