<svg width="46" height="46" viewBox="0 0 46 46" fill="none" xmlns="http://www.w3.org/2000/svg">
<rect width="46" height="46" rx="23" fill="white"/>
<path d="M21.3513 24.6813C21.0648 24.6813 20.8245 24.5817 20.6303 24.3825C20.4359 24.1836 20.3386 23.9375 20.3386 23.644V18.1074C20.3386 17.814 20.4359 17.5678 20.6303 17.3689C20.8245 17.1698 21.0648 17.0702 21.3513 17.0702H25.3514C25.6379 17.0702 25.8783 17.1698 26.0725 17.3689C26.2669 17.5678 26.3641 17.814 26.3641 18.1074V23.644C26.3641 23.9375 26.2669 24.1836 26.0725 24.3825C25.8783 24.5817 25.6379 24.6813 25.3514 24.6813H21.3513ZM21.4448 23.5483H25.258V18.2031H21.4448V23.5483ZM30.1773 28.4335V25.748C30.1773 25.4548 30.2745 25.2086 30.4689 25.0095C30.6631 24.8103 30.9035 24.7108 31.19 24.7108H34.3939V22.5219H30.7223C30.5761 22.5219 30.4487 22.4683 30.34 22.361C30.2315 22.2535 30.1773 22.1189 30.1773 21.9572C30.1773 21.7986 30.2296 21.6642 30.3344 21.5541C30.4393 21.444 30.5713 21.3889 30.7304 21.3889H34.4873C34.7738 21.3889 35.0142 21.4885 35.2084 21.6876C35.4028 21.8865 35.5 22.1327 35.5 22.4261V24.6409C35.5 24.9341 35.4028 25.1803 35.2084 25.3795C35.0142 25.5786 34.7738 25.6782 34.4873 25.6782H31.2834V27.867H34.9469C35.0945 27.867 35.2236 27.9237 35.3341 28.0369C35.4447 28.1502 35.5 28.2824 35.5 28.4335C35.5 28.5964 35.4447 28.7316 35.3341 28.8391C35.2236 28.9464 35.0945 29 34.9469 29H30.7304C30.5713 29 30.4393 28.9464 30.3344 28.8391C30.2296 28.7316 30.1773 28.5964 30.1773 28.4335ZM11.5127 24.7514C11.2384 24.7514 11.001 24.6489 10.8004 24.4437C10.6001 24.2383 10.5 23.9952 10.5 23.7142V18.0372C10.5 17.7563 10.6001 17.5131 10.8004 17.3077C11.001 17.1026 11.2384 17 11.5127 17H15.7236C15.9979 17 16.2353 17.1026 16.4359 17.3077C16.6362 17.5131 16.7363 17.7563 16.7363 18.0372V19.2655C16.7363 19.3968 16.681 19.5179 16.5704 19.629C16.4599 19.7404 16.3308 19.796 16.1832 19.796C16.012 19.796 15.8769 19.7424 15.7781 19.6352C15.6795 19.5277 15.6302 19.3925 15.6302 19.2296V18.133H11.6061V23.6185H15.6302V22.5219C15.6302 22.371 15.6795 22.2388 15.7781 22.1253C15.8769 22.012 16.0114 21.9554 16.1815 21.9554C16.3363 21.9554 16.4675 22.012 16.575 22.1253C16.6825 22.2388 16.7363 22.371 16.7363 22.5219V23.7142C16.7363 23.9952 16.6362 24.2383 16.4359 24.4437C16.2353 24.6489 15.9979 24.7514 15.7236 24.7514H11.5127Z" fill="currentColor"/>
</svg>
