<svg width="24" height="24" viewBox="0 0 24 24" fill="none" xmlns="http://www.w3.org/2000/svg">
<mask id="mask0_6262_46687" style="mask-type:alpha" maskUnits="userSpaceOnUse" x="0" y="0" width="24" height="24">
<rect width="24" height="24" fill="#D9D9D9"/>
</mask>
<g mask="url(#mask0_6262_46687)">
<path d="M12.0008 13.3992L9.10078 16.2992C8.91745 16.4826 8.68411 16.5742 8.40078 16.5742C8.11745 16.5742 7.88411 16.4826 7.70078 16.2992C7.51745 16.1159 7.42578 15.8826 7.42578 15.5992C7.42578 15.3159 7.51745 15.0826 7.70078 14.8992L10.6008 11.9992L7.70078 9.12422C7.51745 8.94089 7.42578 8.70755 7.42578 8.42422C7.42578 8.14089 7.51745 7.90755 7.70078 7.72422C7.88411 7.54089 8.11745 7.44922 8.40078 7.44922C8.68411 7.44922 8.91745 7.54089 9.10078 7.72422L12.0008 10.6242L14.8758 7.72422C15.0591 7.54089 15.2924 7.44922 15.5758 7.44922C15.8591 7.44922 16.0924 7.54089 16.2758 7.72422C16.4758 7.92422 16.5758 8.16172 16.5758 8.43672C16.5758 8.71172 16.4758 8.94089 16.2758 9.12422L13.3758 11.9992L16.2758 14.8992C16.4591 15.0826 16.5508 15.3159 16.5508 15.5992C16.5508 15.8826 16.4591 16.1159 16.2758 16.2992C16.0758 16.4992 15.8383 16.5992 15.5633 16.5992C15.2883 16.5992 15.0591 16.4992 14.8758 16.2992L12.0008 13.3992Z" fill="#B3B3B3"/>
</g>
</svg>
