<svg width="46" height="46" viewBox="0 0 46 46" fill="none" xmlns="http://www.w3.org/2000/svg">
<rect width="46" height="46" rx="23" fill="white"/>
<path d="M17.6987 28.6553H18.7566V21.1956H17.6987V28.6553ZM22.4712 28.6553H23.5287V17.3447H22.4712V28.6553ZM27.2434 28.6553H28.3013V25.0112H27.2434V28.6553ZM14.8269 33C14.3148 33 13.8823 32.8235 13.5294 32.4706C13.1765 32.1177 13 31.6852 13 31.1731V14.8269C13 14.3148 13.1765 13.8823 13.5294 13.5294C13.8823 13.1765 14.3148 13 14.8269 13H31.1731C31.6852 13 32.1177 13.1765 32.4706 13.5294C32.8235 13.8823 33 14.3148 33 14.8269V31.1731C33 31.6852 32.8235 32.1177 32.4706 32.4706C32.1177 32.8235 31.6852 33 31.1731 33H14.8269ZM14.8269 31.9422H31.1731C31.3654 31.9422 31.5417 31.8621 31.7019 31.7019C31.8621 31.5417 31.9422 31.3654 31.9422 31.1731V14.8269C31.9422 14.6346 31.8621 14.4583 31.7019 14.2981C31.5417 14.1379 31.3654 14.0578 31.1731 14.0578H14.8269C14.6346 14.0578 14.4583 14.1379 14.2981 14.2981C14.1379 14.4583 14.0578 14.6346 14.0578 14.8269V31.1731C14.0578 31.3654 14.1379 31.5417 14.2981 31.7019C14.4583 31.8621 14.6346 31.9422 14.8269 31.9422Z" fill="currentColor"/>
</svg>
