<svg width="46" height="46" viewBox="0 0 46 46" fill="none" xmlns="http://www.w3.org/2000/svg">
<rect width="46" height="46" rx="23" fill="white"/>
<mask id="mask0_6798_29366" style="mask-type:alpha" maskUnits="userSpaceOnUse" x="8" y="8" width="30" height="30">
<rect x="8" y="8" width="30" height="30" fill="#D9D9D9"/>
</mask>
<g mask="url(#mask0_6798_29366)">
<path d="M19.3755 22.9873L22.1299 20.2302L19.5053 17.6029L18.0933 19.0307L17.3755 18.3131L18.8006 16.9004L16.2016 14.3053L13.4451 17.0624L19.3755 22.9873ZM28.8642 32.4893L31.6207 29.7277L29.0214 27.1278L27.6093 28.5533L26.8916 27.8356L28.3015 26.4233L25.7177 23.8255L22.9635 26.5805L28.8642 32.4893ZM16.8703 32.7177H13.2397V29.0863L18.6512 23.6736L12.0488 17.0624L16.1817 12.9043L22.8412 19.5375L28.4069 13.9685C28.5188 13.8566 28.6361 13.7772 28.7588 13.7303C28.8815 13.6835 29.0125 13.6601 29.1521 13.6601C29.2813 13.6601 29.4072 13.6835 29.5299 13.7303C29.6525 13.7772 29.7698 13.8566 29.8818 13.9685L31.9848 16.1429C32.0967 16.2551 32.1724 16.3724 32.2117 16.4949C32.2508 16.6176 32.2703 16.7436 32.2703 16.873C32.2703 17.0124 32.2508 17.1393 32.2117 17.2536C32.1724 17.3679 32.0967 17.4811 31.9848 17.5931L26.4649 23.1239L33.0488 29.7551L28.9115 33.9043L22.2862 27.3005L16.8703 32.7177ZM14.2474 31.7097H16.4291L28.1419 19.9919L25.9579 17.8075L14.2474 29.5276V31.7097ZM27.0473 18.8896L25.9579 17.8075L28.1419 19.9919L27.0473 18.8896Z" fill="#040404"/>
</g>
</svg>
