<svg width="46" height="46" viewBox="0 0 46 46" fill="none" xmlns="http://www.w3.org/2000/svg">
<rect width="46" height="46" rx="23" fill="white"/>
<path d="M22.8292 32.8007L26.7285 21.2889H23.3097V12.9823L19.4104 24.5472H22.8292V32.8007ZM23.0045 35.5C21.2689 35.5 19.6403 35.1767 18.1188 34.5302C16.597 33.8837 15.2704 32.9951 14.1389 31.8646C13.0072 30.7343 12.1178 29.4089 11.4708 27.8885C10.8236 26.3682 10.5 24.7402 10.5 23.0045C10.5 21.2726 10.8233 19.6457 11.4698 18.124C12.1163 16.6022 13.0049 15.2756 14.1354 14.1441C15.2657 13.0126 16.5911 12.1223 18.1115 11.4733C19.6318 10.8244 21.2598 10.5 22.9955 10.5C24.7274 10.5 26.3543 10.8242 27.876 11.4726C29.3978 12.1207 30.7244 13.0101 31.8559 14.1406C32.9874 15.2712 33.8777 16.5965 34.5267 18.1167C35.1756 19.637 35.5 21.2633 35.5 22.9955C35.5 24.7311 35.1758 26.3597 34.5274 27.8813C33.8793 29.403 32.9899 30.7296 31.8594 31.8611C30.7288 32.9928 29.4035 33.8822 27.8833 34.5292C26.363 35.1764 24.7367 35.5 23.0045 35.5ZM23 34.3247C26.1569 34.3247 28.8337 33.2265 31.0302 31.0302C33.2265 28.8337 34.3247 26.1569 34.3247 23C34.3247 19.8431 33.2265 17.1663 31.0302 14.9698C28.8337 12.7735 26.1569 11.6753 23 11.6753C19.8431 11.6753 17.1663 12.7735 14.9698 14.9698C12.7735 17.1663 11.6753 19.8431 11.6753 23C11.6753 26.1569 12.7735 28.8337 14.9698 31.0302C17.1663 33.2265 19.8431 34.3247 23 34.3247Z" fill="#040404"/>
</svg>
