<svg width="7" height="12" viewBox="0 0 7 12" fill="none" xmlns="http://www.w3.org/2000/svg">
<path d="M6.55 5.57539C6.55 5.70872 6.52917 5.83372 6.4875 5.95039C6.44583 6.06706 6.375 6.17539 6.275 6.27539L1.675 10.8754C1.49167 11.0587 1.25833 11.1504 0.975 11.1504C0.691667 11.1504 0.458333 11.0587 0.275 10.8754C0.0916667 10.6921 0 10.4587 0 10.1754C0 9.89206 0.0916667 9.65872 0.275 9.47539L4.175 5.57539L0.275 1.67539C0.0916667 1.49206 0 1.25872 0 0.97539C0 0.692057 0.0916667 0.458724 0.275 0.275391C0.458333 0.0920572 0.691667 0.000390053 0.975 0.000390053C1.25833 0.000390053 1.49167 0.0920572 1.675 0.275391L6.275 4.87539C6.375 4.97539 6.44583 5.08372 6.4875 5.20039C6.52917 5.31706 6.55 5.44206 6.55 5.57539Z" fill="white"/>
</svg>
