<svg width="32" height="32" viewBox="0 0 32 32" fill="none" xmlns="http://www.w3.org/2000/svg">
<g clip-path="url(#clip0_572_2979)">
<rect width="32" height="32" rx="4" fill="#1A1A1A"/>
<path d="M12.7099 31.9991L12.7326 20.5693H9.32153V16.4969H12.7316V14.122H12.7161L12.7196 13.7826C12.7301 12.7428 12.7866 11.5291 13.1255 10.4075C13.4789 9.23961 14.0938 8.31716 15.0061 7.58681C15.7746 6.97259 16.7092 6.55596 17.7092 6.38378C18.4149 6.26193 19.1554 6.20312 19.9732 6.20312C20.9234 6.20312 21.9625 6.28361 23.1496 6.44881L23.4391 6.48893V10.3118L22.6465 10.3183L21.4494 10.3265C20.6024 10.333 19.7161 10.4255 18.9723 11.0601C18.2362 11.689 17.8502 12.6663 17.8562 13.8873L17.839 16.0773L17.836 16.4969H23.1042L22.3223 20.7123H17.9068L17.8903 31.9991H12.7099Z" fill="white"/>
</g>
<defs>
<clipPath id="clip0_572_2979">
<rect width="32" height="32" rx="4" fill="white"/>
</clipPath>
</defs>
</svg>
