<svg width="46" height="46" viewBox="0 0 46 46" fill="none" xmlns="http://www.w3.org/2000/svg">
<rect width="46" height="46" rx="23" fill="white"/>
<mask id="mask0_6798_29392" style="mask-type:alpha" maskUnits="userSpaceOnUse" x="7" y="7" width="32" height="32">
<rect x="7" y="7" width="32" height="32" fill="#D9D9D9"/>
</mask>
<g mask="url(#mask0_6798_29392)">
<path d="M31.1361 31.9043L23.4929 24.2611C22.8825 24.7807 22.1807 25.1829 21.3872 25.4677C20.5938 25.7525 19.7965 25.895 18.9953 25.895C17.0402 25.895 15.3855 25.2182 14.0312 23.8647C12.6771 22.5112 12 20.8575 12 18.9036C12 16.9495 12.6768 15.2944 14.0303 13.9382C15.3838 12.5823 17.0375 11.9043 18.9914 11.9043C20.9454 11.9043 22.6006 12.5814 23.9567 13.9355C25.3127 15.2898 25.9907 16.9445 25.9907 18.8996C25.9907 19.7478 25.8404 20.5686 25.5399 21.362C25.2394 22.1554 24.8451 22.8338 24.3568 23.3972L32 31.0407L31.1361 31.9043ZM18.9953 24.6743C20.615 24.6743 21.9823 24.1168 23.0974 23.0017C24.2125 21.8868 24.77 20.5195 24.77 18.8996C24.77 17.2798 24.2125 15.9125 23.0974 14.7976C21.9823 13.6825 20.615 13.125 18.9953 13.125C17.3755 13.125 16.0082 13.6825 14.8933 14.7976C13.7782 15.9125 13.2207 17.2798 13.2207 18.8996C13.2207 20.5195 13.7782 21.8868 14.8933 23.0017C16.0082 24.1168 17.3755 24.6743 18.9953 24.6743Z" fill="#040404"/>
</g>
</svg>
