<svg xmlns="http://www.w3.org/2000/svg" width="56" height="56" viewBox="0 0 56 56" fill="none">
<rect x="56" width="56" height="56" rx="28" transform="rotate(90 56 0)" fill="white"/>
<mask id="mask0_11315_46771" style="mask-type:luminance" maskUnits="userSpaceOnUse" x="15" y="14" width="26" height="28">
<path d="M15.5547 14.5625H40.3747V41.4225H15.5547V14.5625Z" fill="white"/>
</mask>
<g mask="url(#mask0_11315_46771)">
<path d="M39.876 14.3359C40.1491 14.3359 40.3998 14.4853 40.5303 14.7246C40.6608 14.9643 40.6498 15.256 40.5039 15.4854V15.4863L31.7041 29.2051V34.9443C31.7041 35.0931 31.6602 35.2369 31.5791 35.3584L31.4863 35.4717L25.541 41.4307C25.3985 41.5731 25.2079 41.6494 25.0137 41.6494C24.9193 41.6494 24.8214 41.6319 24.7256 41.5908V41.5898C24.4479 41.4737 24.2686 41.202 24.2686 40.9023V29.2041L15.4697 15.4863C15.3223 15.2566 15.3118 14.9644 15.4424 14.7246C15.5728 14.4852 15.8235 14.336 16.0967 14.3359H39.876ZM25.6416 28.582H25.6406C25.7181 28.7023 25.7597 28.8429 25.7598 28.9854V39.0986L30.2139 34.6338V28.9854C30.2139 28.843 30.2546 28.7023 30.332 28.582L38.5117 15.8281H17.4619L25.6416 28.582Z" fill="black" stroke="black" stroke-width="0.5"/>
</g>
</svg>