<svg xmlns="http://www.w3.org/2000/svg" width="33" height="33" viewBox="0 0 33 33" fill="none">
<path d="M18.6684 10.9647L15.701 13.9321L14.3818 12.6129C14.338 12.5708 14.2882 12.5382 14.2315 12.5158C14.1747 12.4935 14.1163 12.4823 14.0553 12.4832C13.9943 12.4832 13.9358 12.4952 13.8791 12.5193C13.8232 12.5425 13.7734 12.576 13.7304 12.619C13.6875 12.6619 13.654 12.7118 13.6299 12.7685C13.6067 12.8243 13.5947 12.8828 13.5938 12.9438C13.5929 13.0048 13.6041 13.0632 13.6265 13.12C13.6497 13.1767 13.6815 13.2274 13.7236 13.2712L15.3718 14.9195C15.4157 14.9625 15.4655 14.996 15.5231 15.0192C15.5798 15.0432 15.6391 15.0544 15.701 15.0544C15.7629 15.0544 15.8222 15.0432 15.8789 15.0192C15.9356 14.996 15.9863 14.9625 16.0301 14.9195L19.3267 11.6229C19.3688 11.5791 19.4015 11.5284 19.4238 11.4717C19.4461 11.415 19.4573 11.3565 19.4573 11.2955C19.4565 11.2345 19.4444 11.1761 19.4204 11.1193C19.3972 11.0635 19.3636 11.0136 19.3207 10.9707C19.2777 10.9277 19.2279 10.8942 19.1711 10.8701C19.1153 10.8469 19.0568 10.8349 18.9958 10.834C18.9348 10.8332 18.8755 10.8443 18.8188 10.8675C18.7621 10.8899 18.7122 10.9225 18.6684 10.9647Z" fill="black"/>
<path d="M22.5505 12.943C22.5505 12.7454 22.5402 12.5486 22.5212 12.3527C22.5015 12.1559 22.4723 11.9608 22.4345 11.7674C22.3958 11.5741 22.3477 11.3833 22.2901 11.1942C22.2325 11.0052 22.1663 10.8195 22.0907 10.6373C22.0151 10.4552 21.9309 10.2773 21.838 10.1037C21.7452 9.92922 21.6438 9.76078 21.5338 9.59664C21.4238 9.4325 21.307 9.27437 21.1815 9.12141C21.0569 8.9693 20.9245 8.8232 20.7845 8.68398C20.6452 8.54391 20.4991 8.41156 20.347 8.28695C20.1941 8.16148 20.0359 8.04375 19.8718 7.93461C19.7077 7.82461 19.5392 7.7232 19.3648 7.63039C19.1912 7.53758 19.0124 7.45336 18.8302 7.37773C18.648 7.30211 18.4624 7.23508 18.2742 7.17836C18.0852 7.12078 17.8944 7.07266 17.701 7.03398C17.5068 6.99531 17.3126 6.96695 17.1158 6.94719C16.9198 6.92742 16.723 6.91797 16.5254 6.91797C8.53234 7.24539 8.53406 18.6416 16.5254 18.9681C16.723 18.9673 16.9198 18.9578 17.1158 18.938C17.3126 18.9191 17.5068 18.8899 17.701 18.8512C17.8944 18.8126 18.0852 18.7645 18.2742 18.7077C18.4624 18.6502 18.648 18.584 18.8302 18.5084C19.0124 18.4327 19.1912 18.3485 19.3648 18.2548C19.5392 18.162 19.7077 18.0606 19.8718 17.9515C20.0359 17.8415 20.1941 17.7237 20.347 17.5991C20.4991 17.4737 20.6452 17.3413 20.7845 17.2021C20.9245 17.062 21.0569 16.9168 21.1815 16.7638C21.307 16.6117 21.4238 16.4527 21.5338 16.2895C21.6438 16.1253 21.7452 15.956 21.838 15.7824C21.9309 15.608 22.0151 15.4301 22.0907 15.2479C22.1663 15.0657 22.2325 14.8801 22.2901 14.691C22.3477 14.5028 22.3958 14.3112 22.4345 14.1178C22.4723 13.9245 22.5015 13.7294 22.5212 13.5334C22.5402 13.3366 22.5505 13.1398 22.5505 12.943ZM16.5254 18.0366C16.3587 18.0366 16.192 18.028 16.0261 18.0116C15.8602 17.9953 15.6952 17.9712 15.532 17.9386C15.3678 17.9059 15.2062 17.8655 15.0473 17.8166C14.8874 17.7684 14.7302 17.7126 14.5763 17.6481C14.4225 17.5845 14.2713 17.5132 14.1243 17.435C13.9773 17.3559 13.8347 17.27 13.6955 17.178C13.5571 17.0852 13.423 16.9855 13.2941 16.8798C13.1652 16.7741 13.0423 16.6624 12.9237 16.5438C12.806 16.4261 12.6943 16.3032 12.5886 16.1743C12.4829 16.0445 12.3832 15.9113 12.2904 15.7721C12.1976 15.6337 12.1125 15.4911 12.0334 15.3433C11.9552 15.1963 11.8839 15.0459 11.8195 14.8921C11.7559 14.7374 11.7 14.581 11.651 14.4212C11.6029 14.2613 11.5625 14.0998 11.5298 13.9365C11.4972 13.7732 11.4731 13.6082 11.4559 13.4423C11.4396 13.2756 11.4319 13.1098 11.4319 12.943C11.7103 6.18492 21.3422 6.18664 21.6189 12.943C21.6189 13.1098 21.6112 13.2756 21.5948 13.4423C21.5785 13.6082 21.5536 13.7732 21.5209 13.9365C21.4883 14.0998 21.4479 14.2613 21.3998 14.4212C21.3508 14.581 21.2949 14.7374 21.2313 14.8921C21.1669 15.0459 21.0964 15.1963 21.0173 15.3441C20.9391 15.4911 20.8532 15.6337 20.7604 15.7721C20.6676 15.9113 20.5688 16.0445 20.4622 16.1743C20.3565 16.3032 20.2448 16.4261 20.127 16.5438C20.0093 16.6624 19.8855 16.7741 19.7566 16.8798C19.6277 16.9855 19.4937 17.0852 19.3553 17.178C19.2161 17.27 19.0734 17.3559 18.9265 17.435C18.7795 17.5132 18.6283 17.5845 18.4745 17.6481C18.3206 17.7126 18.1634 17.7684 18.0044 17.8166C17.8445 17.8655 17.683 17.9059 17.5188 17.9386C17.3555 17.9712 17.1905 17.9953 17.0247 18.0116C16.8588 18.028 16.6921 18.0366 16.5254 18.0366Z" fill="black"/>
<mask id="mask0_11632_46978" style="mask-type:luminance" maskUnits="userSpaceOnUse" x="5" y="3" width="23" height="27">
<path d="M5.60938 3.51953H27.3894V29.6995H5.60938V3.51953Z" fill="white"/>
</mask>
<g mask="url(#mask0_11632_46978)">
<path d="M27.3029 25.8486L23.9324 20.0057C23.7218 20.1252 23.5027 20.2257 23.2758 20.3082C23.2079 20.3314 23.1426 20.3615 23.0799 20.3967L25.8179 25.1413L22.3812 23.744C22.3486 23.7311 22.315 23.7216 22.2798 23.7165C22.2454 23.7105 22.2102 23.7096 22.175 23.7122C22.1397 23.7139 22.1054 23.7208 22.071 23.7311C22.0375 23.7414 22.0057 23.756 21.9747 23.7732C21.9447 23.7912 21.9163 23.8119 21.8905 23.8359C21.8647 23.86 21.8424 23.8875 21.8226 23.9167C21.8029 23.9459 21.7865 23.9769 21.7745 24.0104C21.7616 24.043 21.753 24.0774 21.7487 24.1118L21.2365 27.7813C20.812 27.0448 18.4109 22.8915 18.0517 22.2633C18.2244 22.2908 18.3989 22.3054 18.5742 22.3062C18.7495 22.3071 18.9231 22.2951 19.0967 22.2693C19.2703 22.2444 19.4404 22.2057 19.608 22.155C19.7764 22.1034 19.9389 22.0407 20.097 21.9651C20.2551 21.8895 20.4064 21.8018 20.5516 21.7038C20.6968 21.605 20.8335 21.4967 20.9615 21.3773C21.0904 21.2578 21.209 21.1298 21.3182 20.9931C21.4273 20.8556 21.5261 20.7112 21.6129 20.5591C21.9919 19.8201 22.755 19.5133 23.4666 19.2005C23.6239 19.112 23.7734 19.0131 23.9152 18.9014C24.057 18.7905 24.1893 18.6694 24.3131 18.5379C24.436 18.4064 24.5486 18.2663 24.65 18.1168C24.7514 17.9681 24.8407 17.8126 24.9181 17.6493C24.9954 17.4869 25.0599 17.3193 25.1106 17.1466C25.1622 16.9738 25.2 16.7977 25.224 16.6198C25.2489 16.441 25.2593 16.2614 25.255 16.0818C25.2515 15.9013 25.2343 15.7226 25.2034 15.5447C25.1493 15.2491 25.1484 14.9526 25.2008 14.657C25.2524 14.3605 25.3547 14.082 25.5059 13.8225C25.6082 13.6455 25.6941 13.4616 25.7637 13.2699C25.8333 13.0783 25.8857 12.8823 25.9218 12.6821C25.9571 12.481 25.9751 12.2791 25.9743 12.0745C25.9743 11.8709 25.9571 11.6689 25.921 11.4678C25.8857 11.2667 25.8333 11.0708 25.7637 10.8791C25.6932 10.6884 25.6073 10.5036 25.505 10.3274C25.4028 10.1512 25.2868 9.98453 25.1553 9.82898C25.0238 9.67344 24.8803 9.52992 24.7239 9.3993C24.4944 9.20422 24.3045 8.97648 24.1541 8.71609C24.0037 8.45484 23.9023 8.17727 23.8482 7.88078C23.8129 7.68055 23.7605 7.48461 23.6918 7.29297C23.6222 7.10133 23.5362 6.91742 23.4348 6.74125C23.3334 6.56422 23.2174 6.39836 23.0859 6.24195C22.9553 6.08555 22.8118 5.94203 22.6562 5.81141C22.5007 5.67992 22.3339 5.56391 22.1578 5.46164C21.9816 5.36023 21.7977 5.2743 21.6061 5.20469C21.4153 5.13508 21.2185 5.08266 21.0182 5.04742C20.818 5.01219 20.6161 4.99414 20.4124 4.99414C20.1107 4.99414 19.8186 4.94172 19.535 4.83859C19.2522 4.73547 18.9944 4.5868 18.7641 4.39344C18.6077 4.26281 18.4418 4.14594 18.2657 4.04453C18.0886 3.94227 17.9047 3.85719 17.7139 3.78672C17.5223 3.71711 17.3264 3.66469 17.1261 3.62945C16.925 3.59422 16.7231 3.57617 16.5194 3.57617C16.3157 3.57617 16.1138 3.59422 15.9136 3.62945C15.7125 3.66469 15.5165 3.71711 15.3249 3.78672C15.1341 3.85719 14.9502 3.94227 14.774 4.04453C14.597 4.14594 14.4311 4.26281 14.2756 4.39344C14.0444 4.5868 13.7875 4.73547 13.5039 4.83859C13.2203 4.94172 12.9281 4.99414 12.6273 4.99414C12.4236 4.99414 12.2208 5.01219 12.0206 5.04742C11.8204 5.08266 11.6244 5.13508 11.4328 5.20469C11.2411 5.2743 11.0572 5.36023 10.8811 5.46164C10.7049 5.56391 10.539 5.67992 10.3826 5.81141C10.2271 5.94203 10.0836 6.08555 9.95293 6.24195C9.82231 6.39836 9.70543 6.56422 9.60403 6.74125C9.50262 6.91742 9.41668 7.10133 9.34707 7.29297C9.27832 7.48461 9.2259 7.68055 9.19067 7.88078C9.13738 8.17727 9.03512 8.45484 8.88473 8.71609C8.73434 8.97648 8.54442 9.20422 8.31582 9.3993C8.15942 9.52992 8.01504 9.67344 7.88356 9.82898C7.75293 9.98453 7.63606 10.1512 7.53379 10.3274C7.43153 10.5036 7.34559 10.6884 7.27598 10.8791C7.20551 11.0708 7.15309 11.2667 7.11785 11.4678C7.08176 11.6689 7.06457 11.8709 7.06457 12.0745C7.06457 12.2791 7.08176 12.481 7.11785 12.6821C7.15309 12.8823 7.20551 13.0783 7.27512 13.2699C7.34559 13.4616 7.43153 13.6455 7.53293 13.8225C7.68504 14.082 7.78645 14.3605 7.83801 14.657C7.89043 14.9526 7.88957 15.2491 7.83629 15.5447C7.80106 15.7458 7.78301 15.9477 7.78387 16.1514C7.78387 16.3551 7.80192 16.5579 7.83715 16.7581C7.87324 16.9584 7.92567 17.1552 7.99528 17.3459C8.06574 17.5376 8.15168 17.7215 8.25309 17.8977C8.35535 18.0738 8.47223 18.2405 8.60285 18.3961C8.73434 18.5525 8.87785 18.696 9.03426 18.8266C9.18981 18.9573 9.35653 19.0741 9.5327 19.1755C9.70973 19.2778 9.89363 19.3629 10.0844 19.4325C10.3672 19.5356 10.6241 19.6843 10.8544 19.8777C11.0847 20.0719 11.2755 20.2987 11.4259 20.5591C11.578 20.8255 11.7628 21.0662 11.9793 21.2836C12.1959 21.5002 12.4365 21.6858 12.7021 21.8387C12.9676 21.9917 13.2478 22.1086 13.5443 22.1877C13.8399 22.2667 14.1415 22.3062 14.4475 22.3054C14.6288 22.3054 14.8084 22.2916 14.988 22.2633L14.4243 23.237L11.8032 27.7813L11.291 24.1118C11.2858 24.0774 11.2772 24.043 11.2652 24.0104C11.2523 23.9769 11.236 23.9459 11.2162 23.9167C11.1973 23.8875 11.1741 23.86 11.1483 23.8359C11.1225 23.8119 11.0942 23.7912 11.0641 23.7732C11.0332 23.756 11.0014 23.7414 10.9679 23.7311C10.9335 23.7208 10.8991 23.7139 10.8639 23.7122C10.8286 23.7096 10.7943 23.7105 10.759 23.7165C10.7238 23.7216 10.6903 23.7311 10.6576 23.744L7.22098 25.1413L9.95895 20.3967C9.89621 20.3615 9.83176 20.3314 9.76387 20.3082C9.53613 20.2257 9.31699 20.1252 9.10731 20.0057L5.73598 25.8486C5.68528 25.9354 5.66465 26.0282 5.6741 26.127C5.68356 26.2267 5.72137 26.3135 5.78754 26.3891C5.85285 26.463 5.93449 26.5112 6.03074 26.5344C6.12699 26.5576 6.22153 26.5507 6.31348 26.5146L10.4522 24.8294L11.0675 29.2526C11.0822 29.3497 11.1243 29.4339 11.1922 29.5044C11.26 29.5757 11.3425 29.6204 11.4388 29.6393C11.5359 29.6573 11.6287 29.647 11.7181 29.6066C11.8083 29.5671 11.8779 29.5044 11.9286 29.4202L15.5836 23.0874L16.2358 21.9608C16.4249 21.9376 16.6139 21.9376 16.8039 21.9608L17.4553 23.0926L21.1102 29.4202C21.16 29.5061 21.2305 29.5697 21.3216 29.6109C21.4118 29.6522 21.5064 29.6634 21.6043 29.6436C21.7014 29.6255 21.7839 29.58 21.8518 29.5078C21.9197 29.4356 21.9593 29.3505 21.9722 29.2526L22.5866 24.8294L26.7254 26.5146C26.8173 26.5498 26.9118 26.5559 27.0072 26.5318C27.1026 26.5077 27.1834 26.4587 27.2479 26.384C27.3123 26.3101 27.3493 26.2233 27.3596 26.1253C27.3699 26.0273 27.351 25.9354 27.3029 25.8486ZM15.9514 21.0576C15.7365 21.0928 15.5277 21.147 15.3232 21.2209C15.1822 21.2716 15.0387 21.3102 14.8918 21.336C14.7448 21.3627 14.597 21.3755 14.4475 21.3755C14.2979 21.3755 14.1501 21.3627 14.0023 21.3369C13.8554 21.3102 13.7118 21.2724 13.5718 21.2209C13.4317 21.1702 13.2968 21.1066 13.167 21.0318C13.0381 20.957 12.9161 20.872 12.8018 20.7757C12.6875 20.6795 12.5826 20.5746 12.4864 20.4595C12.391 20.3452 12.3059 20.2231 12.2311 20.0942C12.0214 19.7307 11.7542 19.4145 11.4311 19.1472C11.1071 18.8799 10.747 18.6771 10.35 18.5387C10.2133 18.4855 10.0818 18.421 9.95551 18.3445C9.83004 18.2689 9.71145 18.183 9.60059 18.0867C9.48973 17.9905 9.38746 17.8848 9.29465 17.7713C9.20098 17.657 9.11848 17.5367 9.04629 17.4087C8.9741 17.2806 8.91309 17.1474 8.8641 17.0082C8.81426 16.8698 8.77731 16.728 8.75238 16.5837C8.72746 16.4384 8.71543 16.2923 8.71543 16.1454C8.71543 15.9984 8.72832 15.8523 8.75324 15.708C8.82457 15.3041 8.82543 14.9002 8.7541 14.4954C8.68278 14.0915 8.54442 13.7116 8.33903 13.3567C8.2634 13.227 8.20067 13.092 8.1491 12.952C8.0984 12.811 8.05973 12.6675 8.03309 12.5197C8.00731 12.3727 7.99442 12.2241 7.99442 12.0745C7.99442 11.925 8.00731 11.7772 8.03309 11.6294C8.05887 11.4824 8.09754 11.338 8.1491 11.198C8.19981 11.057 8.2634 10.9221 8.33817 10.7932C8.41293 10.6634 8.49887 10.5414 8.59512 10.4271C8.69137 10.3128 8.79707 10.2071 8.91137 10.1117C9.2259 9.84703 9.48543 9.53766 9.69082 9.18273C9.89707 8.82781 10.0354 8.44797 10.1085 8.04406C10.1334 7.89711 10.1712 7.75273 10.2219 7.61266C10.2726 7.47172 10.3354 7.3368 10.4101 7.20703C10.484 7.07727 10.5691 6.95523 10.6654 6.84094C10.7607 6.72664 10.8664 6.62094 10.9807 6.52469C11.095 6.42844 11.2171 6.34336 11.346 6.26859C11.4757 6.19383 11.6107 6.13023 11.7507 6.07953C11.8908 6.02797 12.0352 5.99016 12.1822 5.96437C12.3291 5.93773 12.4778 5.9257 12.6273 5.9257C13.0372 5.9257 13.4351 5.85609 13.821 5.71602C14.2068 5.57594 14.5566 5.37398 14.8711 5.11102C14.9854 5.01477 15.1075 4.92883 15.2372 4.85406C15.367 4.7793 15.5019 4.7157 15.642 4.665C15.7829 4.61344 15.9264 4.57477 16.0743 4.54898C16.2212 4.5232 16.3699 4.51031 16.5194 4.51031C16.6689 4.51031 16.8176 4.5232 16.9646 4.54898C17.1124 4.57477 17.2559 4.61344 17.3968 4.665C17.5369 4.7157 17.6718 4.7793 17.8016 4.85406C17.9314 4.92883 18.0534 5.01477 18.1677 5.11102C18.4822 5.37398 18.832 5.57594 19.2179 5.71602C19.6037 5.85609 20.0016 5.9257 20.4124 5.9257C20.5611 5.9257 20.7097 5.93773 20.8567 5.96437C21.0036 5.99016 21.148 6.02797 21.2881 6.07953C21.4282 6.13023 21.5631 6.19383 21.6929 6.26859C21.8218 6.34336 21.9438 6.42844 22.0581 6.52469C22.1724 6.62094 22.2781 6.72664 22.3735 6.84094C22.4697 6.95523 22.5548 7.07727 22.6287 7.20703C22.7035 7.3368 22.7662 7.47172 22.8169 7.61266C22.8676 7.75273 22.9054 7.89711 22.9312 8.04406C23.0034 8.44797 23.1426 8.82781 23.348 9.18273C23.5534 9.53766 23.8129 9.84703 24.1275 10.1117C24.2426 10.2071 24.3475 10.3128 24.4437 10.4271C24.54 10.5414 24.6259 10.6634 24.7007 10.7932C24.7754 10.9221 24.839 11.057 24.8897 11.198C24.9413 11.338 24.98 11.4824 25.0057 11.6294C25.0315 11.7772 25.0444 11.925 25.0444 12.0745C25.0444 12.2241 25.0315 12.3727 25.0057 12.5197C24.98 12.6675 24.9413 12.811 24.8897 12.952C24.8382 13.092 24.7754 13.227 24.6998 13.3567C24.4944 13.7116 24.3561 14.0915 24.2847 14.4954C24.2134 14.9002 24.2143 15.3041 24.2856 15.708C24.3114 15.8523 24.3234 15.9984 24.3234 16.1454C24.3243 16.2923 24.3114 16.4384 24.2864 16.5837C24.2615 16.728 24.2246 16.8698 24.1747 17.0082C24.1257 17.1474 24.0647 17.2806 23.9925 17.4087C23.9204 17.5367 23.8379 17.657 23.745 17.7713C23.6514 17.8848 23.55 17.9905 23.4382 18.0867C23.3274 18.183 23.2088 18.2689 23.0833 18.3445C22.957 18.421 22.8255 18.4855 22.6889 18.5387C22.2918 18.6771 21.9318 18.8799 21.6086 19.1472C21.2847 19.4145 21.0174 19.7307 20.8077 20.0942C20.7329 20.2231 20.6479 20.3452 20.5525 20.4595C20.4562 20.5746 20.3514 20.6795 20.2371 20.7757C20.1228 20.872 20.0007 20.957 19.8718 21.0318C19.7421 21.1066 19.608 21.1702 19.4671 21.2209C19.327 21.2724 19.1835 21.3102 19.0365 21.3369C18.8896 21.3627 18.7409 21.3755 18.5914 21.3755C18.4427 21.3755 18.294 21.3627 18.1471 21.336C18.0001 21.3102 17.8566 21.2716 17.7165 21.2209C17.1416 21.0146 16.5538 20.9605 15.9514 21.0576Z" fill="black"/>
</g>
</svg>