<svg xmlns="http://www.w3.org/2000/svg" width="30" height="30" viewBox="0 0 30 30" fill="none">
<mask id="filt-trig-mask" style="mask-type:luminance" maskUnits="userSpaceOnUse" x="3" y="3" width="24" height="26">
<path d="M26.166 3.89453V28.0947H3.76562V3.89453H26.166Z" fill="white" stroke="white" stroke-width="0.5"/>
</mask>
<g mask="url(#filt-trig-mask)">
<path d="M25.4814 3.91602C25.7334 3.91602 25.9647 4.05359 26.085 4.27441C26.2053 4.49538 26.1949 4.76421 26.0605 4.97559H26.0596L18.2998 17.0742V22.1289C18.2998 22.3117 18.2275 22.4864 18.0986 22.6152L12.8535 27.873C12.7221 28.0044 12.5463 28.0742 12.3672 28.0742C12.2814 28.0742 12.1929 28.0584 12.1055 28.0215V28.0225C11.8474 27.9163 11.6808 27.664 11.6807 27.3867V17.0732L3.92188 4.97559C3.78619 4.76388 3.7762 4.49534 3.89648 4.27441C4.01669 4.05384 4.24732 3.91616 4.49902 3.91602H25.4814ZM5.75781 5.29199L12.9453 16.499C13.0167 16.6098 13.0546 16.7399 13.0547 16.8711V25.7236L16.9258 21.8438V16.8711C16.9259 16.7399 16.9637 16.6098 17.0352 16.499L24.2236 5.29199H5.75781Z" fill="black" stroke="black" stroke-width="0.5"/>
</g>
</svg>
