<svg xmlns="http://www.w3.org/2000/svg" width="34" height="34" viewBox="0 0 34 34" fill="none">
<mask id="filt-close-mask" style="mask-type:luminance" maskUnits="userSpaceOnUse" x="3" y="3" width="28" height="28">
<path d="M3.78906 3.78711H30.1391V30.1371H3.78906V3.78711Z" fill="white"/>
</mask>
<g mask="url(#filt-close-mask)">
<path d="M16.9633 3.77734C16.5321 3.77734 16.1009 3.79859 15.6715 3.84109C15.2421 3.88359 14.8153 3.94646 14.3921 4.03146C13.968 4.11557 13.5501 4.22005 13.1366 4.34578C12.724 4.47062 12.3176 4.61583 11.9191 4.78141C11.5198 4.94698 11.1302 5.13115 10.7495 5.33479C10.3688 5.53844 9.99865 5.75979 9.63917 5.99974C9.28057 6.23969 8.93438 6.49646 8.60057 6.77005C8.26677 7.04453 7.94714 7.33406 7.64167 7.63953C7.3362 7.945 7.04667 8.26375 6.77307 8.59755C6.49948 8.93135 6.24271 9.27844 6.00276 9.63703C5.76281 9.99651 5.54057 10.3657 5.33693 10.7465C5.13417 11.1281 4.94911 11.5177 4.78443 11.9161C4.61885 12.3154 4.47365 12.7209 4.3488 13.1344C4.22307 13.5479 4.11859 13.9658 4.03448 14.3899C3.94948 14.8132 3.88661 15.2399 3.84411 15.6694C3.80161 16.0988 3.78125 16.53 3.78125 16.9612C3.78125 17.3933 3.80161 17.8236 3.84411 18.2539C3.88661 18.6833 3.95036 19.1101 4.03448 19.5333C4.11859 19.9566 4.22307 20.3754 4.3488 20.788C4.47365 21.2015 4.61885 21.6079 4.78443 22.0063C4.95 22.4056 5.13417 22.7952 5.33781 23.1759C5.54146 23.5567 5.76281 23.9268 6.00276 24.2854C6.24271 24.6448 6.49948 24.991 6.77307 25.3248C7.04755 25.6586 7.33708 25.9783 7.64255 26.2837C7.94802 26.5883 8.26677 26.8779 8.60057 27.1523C8.93438 27.4259 9.28146 27.6827 9.64005 27.9227C9.99865 28.1626 10.3688 28.3848 10.7495 28.5876C11.1302 28.7912 11.5207 28.9763 11.9191 29.141C12.3184 29.3066 12.724 29.4518 13.1374 29.5766C13.5509 29.7023 13.9689 29.8068 14.3921 29.8909C14.8162 29.9759 15.2421 30.0388 15.6724 30.0813C16.1018 30.1238 16.5321 30.1451 16.9642 30.1451C17.3963 30.1442 17.8266 30.1238 18.2569 30.0813C18.6864 30.0388 19.1131 29.9759 19.5364 29.8909C19.9596 29.8068 20.3784 29.7023 20.791 29.5766C21.2045 29.4518 21.6109 29.3066 22.0093 29.141C22.4086 28.9754 22.7982 28.7912 23.179 28.5876C23.5597 28.384 23.9298 28.1626 24.2884 27.9227C24.6479 27.6827 24.9941 27.4259 25.3279 27.1523C25.6617 26.8779 25.9813 26.5883 26.2868 26.2829C26.5922 25.9783 26.8818 25.6586 27.1554 25.3248C27.429 24.991 27.6857 24.6448 27.9257 24.2854C28.1656 23.9268 28.3879 23.5567 28.5915 23.1759C28.7943 22.7952 28.9793 22.4047 29.144 22.0063C29.3096 21.607 29.4548 21.2015 29.5805 20.788C29.7054 20.3745 29.8107 19.9566 29.8948 19.5333C29.979 19.1092 30.0418 18.6833 30.0843 18.253C30.1268 17.8236 30.1481 17.3933 30.1481 16.9612C30.1472 16.5291 30.1259 16.0988 30.0826 15.6694C30.0401 15.2399 29.9763 14.8132 29.8922 14.3899C29.8072 13.9667 29.7027 13.5488 29.577 13.1353C29.4513 12.7227 29.3052 12.3172 29.1405 11.9179C28.9749 11.5194 28.7898 11.1298 28.5862 10.7491C28.3826 10.3684 28.1612 9.99917 27.9213 9.64057C27.6813 9.28109 27.4245 8.9349 27.1501 8.60109C26.8765 8.26818 26.5869 7.94854 26.2815 7.64307C25.9769 7.3376 25.6572 7.04807 25.3234 6.77448C24.9896 6.50089 24.6434 6.24411 24.2848 6.00417C23.9263 5.76422 23.5561 5.54198 23.1754 5.33833C22.7947 5.13469 22.4051 4.95052 22.0067 4.78495C21.6082 4.61937 21.2018 4.47417 20.7892 4.34844C20.3766 4.22271 19.9578 4.11823 19.5346 4.03323C19.1114 3.94911 18.6855 3.88536 18.2552 3.84286C17.8257 3.79948 17.3954 3.77823 16.9633 3.77734ZM16.9633 28.9524C16.5711 28.9524 16.1789 28.9329 15.7884 28.8948C15.3979 28.8559 15.0092 28.7983 14.6241 28.7222C14.2389 28.6452 13.8591 28.5495 13.4828 28.4362C13.1073 28.322 12.7381 28.1901 12.3751 28.0395C12.0121 27.889 11.6579 27.7217 11.3108 27.5357C10.9646 27.3507 10.6282 27.1497 10.3023 26.931C9.97563 26.7132 9.66042 26.4794 9.35672 26.2297C9.05302 25.9809 8.76261 25.7171 8.48458 25.4399C8.20745 25.1619 7.94359 24.8715 7.69479 24.5678C7.44599 24.2641 7.21224 23.9489 6.99354 23.6231C6.77573 23.2964 6.57385 22.9599 6.3888 22.6137C6.20375 22.2666 6.03641 21.9124 5.88589 21.5494C5.73537 21.1864 5.60344 20.8172 5.48922 20.4418C5.375 20.0655 5.28026 19.6856 5.20323 19.3005C5.12708 18.9153 5.06953 18.5266 5.03057 18.1361C4.9925 17.7448 4.97302 17.3534 4.97302 16.9603C4.97302 16.5681 4.9925 16.1758 5.03057 15.7854C5.06953 15.3949 5.12708 15.0062 5.20323 14.621C5.28026 14.2359 5.37589 13.856 5.48922 13.4797C5.60344 13.1043 5.73537 12.7351 5.88589 12.3721C6.03641 12.0091 6.20375 11.6549 6.3888 11.3078C6.57474 10.9616 6.77573 10.6252 6.99443 10.2993C7.21224 9.9726 7.44599 9.6574 7.69479 9.3537C7.94448 9.05 8.20745 8.75958 8.48547 8.48156C8.76349 8.20443 9.05391 7.94057 9.3576 7.69177C9.6613 7.44208 9.97651 7.20922 10.3023 6.99052C10.6291 6.77271 10.9655 6.57083 11.3117 6.38578C11.6579 6.20073 12.013 6.0325 12.376 5.88286C12.739 5.73234 13.1082 5.60042 13.4836 5.4862C13.8599 5.37198 14.2398 5.27724 14.6249 5.20021C15.0101 5.12406 15.3988 5.06651 15.7893 5.02755C16.1797 4.98948 16.572 4.97 16.9642 4.97C17.3573 4.97 17.7487 4.98948 18.1401 5.02755C18.5305 5.06651 18.9183 5.12406 19.3035 5.20021C19.6886 5.27724 20.0694 5.37198 20.4457 5.4862C20.8211 5.60042 21.1903 5.73234 21.5533 5.88286C21.9164 6.03339 22.2705 6.20073 22.6167 6.38578C22.9638 6.57083 23.3003 6.77271 23.6261 6.99052C23.9528 7.20922 24.268 7.44297 24.5717 7.69177C24.8754 7.94057 25.1658 8.20443 25.4439 8.48245C25.721 8.75958 25.9848 9.05089 26.2337 9.3537C26.4825 9.6574 26.7162 9.9726 26.9349 10.2993C27.1527 10.626 27.3546 10.9625 27.5396 11.3087C27.7247 11.6549 27.8929 12.0091 28.0426 12.3721C28.1931 12.7351 28.325 13.1043 28.4392 13.4806C28.5534 13.856 28.6482 14.2368 28.7252 14.6219C28.8014 15.0071 28.8589 15.3949 28.8979 15.7854C28.9359 16.1767 28.9554 16.5681 28.9554 16.9612C28.9554 17.3534 28.9351 17.7457 28.897 18.1361C28.858 18.5266 28.7996 18.9144 28.7226 19.2996C28.6455 19.6847 28.5499 20.0646 28.4357 20.4409C28.3215 20.8163 28.1895 21.1855 28.039 21.5477C27.8885 21.9107 27.7211 22.2648 27.5352 22.611C27.3502 22.9572 27.1483 23.2937 26.9305 23.6204C26.7118 23.9462 26.478 24.2615 26.2292 24.5652C25.9804 24.868 25.7166 25.1584 25.4394 25.4364C25.1614 25.7135 24.871 25.9774 24.5673 26.2262C24.2645 26.4759 23.9493 26.7096 23.6226 26.9274C23.2967 27.1453 22.9603 27.3471 22.6141 27.5322C22.2679 27.7181 21.9137 27.8855 21.5507 28.036C21.1877 28.1865 20.8184 28.3184 20.443 28.4327C20.0676 28.5469 19.6869 28.6425 19.3026 28.7195C18.9174 28.7966 18.5296 28.8541 18.1383 28.8931C17.7478 28.932 17.3565 28.9515 16.9633 28.9524Z" fill="black"/>
</g>
<path d="M21.7613 12.1577C21.7055 12.102 21.6409 12.0586 21.5674 12.0285C21.4948 11.9984 21.4186 11.9824 21.3398 11.9824C21.2602 11.9824 21.184 11.9984 21.1114 12.0285C21.0388 12.0586 20.9742 12.102 20.9184 12.1577L16.9561 16.12L12.9939 12.1577C12.9381 12.102 12.8735 12.0586 12.8009 12.0285C12.7274 11.9984 12.6512 11.9833 12.5724 11.9833C12.4936 11.9833 12.4175 11.9984 12.344 12.0285C12.2714 12.0586 12.2068 12.102 12.151 12.1577C12.0952 12.2135 12.0518 12.2782 12.0217 12.3508C11.9916 12.4242 11.9766 12.4995 11.9766 12.5792C11.9766 12.658 11.9916 12.7341 12.0217 12.8067C12.0518 12.8802 12.0952 12.9449 12.151 13.0007L16.1132 16.9629L12.151 20.9251C12.0952 20.9809 12.0518 21.0455 12.0217 21.1182C11.9916 21.1916 11.9766 21.2678 11.9766 21.3466C11.9766 21.4254 11.9916 21.5015 12.0217 21.575C12.0518 21.6476 12.0952 21.7123 12.151 21.768C12.2068 21.8238 12.2714 21.8672 12.344 21.8973C12.4175 21.9274 12.4936 21.9425 12.5724 21.9425C12.6512 21.9425 12.7274 21.9274 12.8009 21.8973C12.8735 21.8672 12.9381 21.8238 12.9939 21.768L16.9561 17.8058L20.9184 21.768C20.9742 21.8238 21.0388 21.8672 21.1114 21.8973C21.184 21.9274 21.2602 21.9425 21.3398 21.9425C21.4186 21.9425 21.4948 21.9274 21.5674 21.8973C21.6409 21.8672 21.7055 21.8238 21.7613 21.768C21.8171 21.7123 21.8596 21.6476 21.8906 21.575C21.9207 21.5015 21.9357 21.4254 21.9357 21.3466C21.9357 21.2678 21.9207 21.1916 21.8906 21.1182C21.8596 21.0455 21.8171 20.9809 21.7613 20.9251L17.7991 16.9629L21.7613 13.0007C21.8171 12.9449 21.8596 12.8802 21.8906 12.8067C21.9207 12.7341 21.9357 12.658 21.9357 12.5792C21.9357 12.4995 21.9207 12.4242 21.8906 12.3508C21.8596 12.2782 21.8171 12.2135 21.7613 12.1577Z" fill="white"/>
</svg>
