<svg width="48" height="48" viewBox="0 0 48 48" fill="none" xmlns="http://www.w3.org/2000/svg">
<rect width="48" height="48" rx="24" transform="matrix(-1 0 0 1 48 0)" fill="white"/>
<path d="M24.384 12.4908C26.56 12.4908 28.2987 13.0881 29.6 14.2828C30.9227 15.4774 31.584 17.1094 31.584 19.1788C31.584 21.3334 30.9013 22.9548 29.536 24.0428C28.1707 25.1308 26.3573 25.6748 24.096 25.6748L23.968 28.2028H20.8L20.64 23.1788H21.696C23.7653 23.1788 25.344 22.9014 26.432 22.3468C27.5413 21.7921 28.096 20.7361 28.096 19.1788C28.096 18.0481 27.7653 17.1628 27.104 16.5228C26.464 15.8828 25.568 15.5628 24.416 15.5628C23.264 15.5628 22.3573 15.8721 21.696 16.4908C21.0347 17.1094 20.704 17.9734 20.704 19.0828H17.28C17.28 17.8028 17.568 16.6614 18.144 15.6588C18.72 14.6561 19.5413 13.8774 20.608 13.3228C21.696 12.7681 22.9547 12.4908 24.384 12.4908ZM22.336 35.2748C21.6747 35.2748 21.12 35.0508 20.672 34.6028C20.224 34.1548 20 33.6001 20 32.9388C20 32.2774 20.224 31.7228 20.672 31.2748C21.12 30.8268 21.6747 30.6028 22.336 30.6028C22.976 30.6028 23.52 30.8268 23.968 31.2748C24.416 31.7228 24.64 32.2774 24.64 32.9388C24.64 33.6001 24.416 34.1548 23.968 34.6028C23.52 35.0508 22.976 35.2748 22.336 35.2748Z" fill="black"/>
</svg>
