<svg width="266" height="24" viewBox="0 0 266 24" fill="none" xmlns="http://www.w3.org/2000/svg">
<path d="M1.12375 2.97005C0.81575 2.97005 0.55175 2.86005 0.33175 2.64005C0.11175 2.42005 0.00175007 2.14871 0.00175007 1.82605C0.00175007 1.50338 0.11175 1.23938 0.33175 1.03405C0.55175 0.814046 0.81575 0.704046 1.12375 0.704046C1.43175 0.704046 1.69575 0.814046 1.91575 1.03405C2.13575 1.23938 2.24575 1.50338 2.24575 1.82605C2.24575 2.14871 2.13575 2.42005 1.91575 2.64005C1.69575 2.86005 1.43175 2.97005 1.12375 2.97005ZM1.89375 5.23605V17.248H0.35375V5.23605H1.89375ZM11.0131 5.01605C12.4504 5.01605 13.6238 5.46338 14.5331 6.35805C15.4424 7.23805 15.8971 8.52138 15.8971 10.208V17.248H14.3791V10.384C14.3791 9.07871 14.0491 8.08138 13.3891 7.39205C12.7438 6.70271 11.8564 6.35805 10.7271 6.35805C9.56843 6.35805 8.64443 6.72471 7.95509 7.45805C7.26576 8.19138 6.92109 9.26938 6.92109 10.692V17.248H5.38109V5.23605H6.92109V7.28205C7.30243 6.54871 7.85243 5.99138 8.57109 5.61005C9.28976 5.21405 10.1038 5.01605 11.0131 5.01605ZM21.305 6.53405V13.992C21.305 14.7254 21.4443 15.2314 21.723 15.51C22.0016 15.7887 22.493 15.928 23.197 15.928H24.605V17.248H22.955C21.8696 17.248 21.063 16.9987 20.535 16.5C20.007 15.9867 19.743 15.1507 19.743 13.992V6.53405H18.071V5.23605H19.743V2.22205H21.305V5.23605H24.605V6.53405H21.305ZM38.0128 10.626C38.0128 11.154 37.9981 11.5574 37.9688 11.836H28.0028C28.0468 12.7454 28.2668 13.5227 28.6628 14.168C29.0588 14.8134 29.5794 15.3047 30.2248 15.642C30.8701 15.9647 31.5741 16.126 32.3368 16.126C33.3341 16.126 34.1701 15.884 34.8448 15.4C35.5341 14.916 35.9888 14.2634 36.2088 13.442H37.8368C37.5434 14.6154 36.9128 15.576 35.9448 16.324C34.9914 17.0574 33.7888 17.424 32.3368 17.424C31.2074 17.424 30.1954 17.1747 29.3008 16.676C28.4061 16.1627 27.7021 15.444 27.1888 14.52C26.6901 13.5814 26.4408 12.4887 26.4408 11.242C26.4408 9.99538 26.6901 8.90271 27.1888 7.96405C27.6874 7.02538 28.3841 6.30671 29.2788 5.80805C30.1734 5.30938 31.1928 5.06005 32.3368 5.06005C33.4808 5.06005 34.4781 5.30938 35.3288 5.80805C36.1941 6.30671 36.8541 6.98138 37.3088 7.83205C37.7781 8.66805 38.0128 9.59938 38.0128 10.626ZM36.4508 10.582C36.4654 9.68738 36.2821 8.92471 35.9008 8.29405C35.5341 7.66338 35.0281 7.18671 34.3828 6.86405C33.7374 6.54138 33.0334 6.38005 32.2708 6.38005C31.1268 6.38005 30.1514 6.74671 29.3448 7.48005C28.5381 8.21338 28.0908 9.24738 28.0028 10.582H36.4508ZM45.8683 5.06005C46.9976 5.06005 47.9803 5.32405 48.8163 5.85205C49.6523 6.38005 50.2536 7.04738 50.6203 7.85405V5.23605H52.1603V17.556C52.1603 18.656 51.9183 19.6314 51.4343 20.482C50.965 21.3327 50.305 21.9854 49.4543 22.44C48.6036 22.9094 47.6356 23.144 46.5503 23.144C45.0103 23.144 43.727 22.7774 42.7003 22.044C41.6883 21.3107 41.0576 20.3134 40.8083 19.052H42.3263C42.5903 19.888 43.089 20.5554 43.8223 21.054C44.5703 21.5527 45.4796 21.802 46.5503 21.802C47.3276 21.802 48.0243 21.6334 48.6403 21.296C49.2563 20.9734 49.7403 20.4894 50.0923 19.844C50.4443 19.1987 50.6203 18.436 50.6203 17.556V14.586C50.239 15.4074 49.6303 16.0894 48.7943 16.632C47.973 17.16 46.9976 17.424 45.8683 17.424C44.7683 17.424 43.7783 17.1674 42.8983 16.654C42.033 16.1407 41.351 15.4147 40.8523 14.476C40.3683 13.5374 40.1263 12.452 40.1263 11.22C40.1263 9.98805 40.3683 8.91005 40.8523 7.98605C41.351 7.04738 42.033 6.32871 42.8983 5.83005C43.7783 5.31671 44.7683 5.06005 45.8683 5.06005ZM50.6203 11.242C50.6203 10.274 50.4223 9.42338 50.0263 8.69005C49.6303 7.95671 49.0876 7.39205 48.3983 6.99605C47.7236 6.60005 46.9756 6.40205 46.1543 6.40205C45.3036 6.40205 44.541 6.59271 43.8663 6.97405C43.1916 7.35538 42.6563 7.91271 42.2603 8.64605C41.879 9.36471 41.6883 10.2227 41.6883 11.22C41.6883 12.2027 41.879 13.068 42.2603 13.816C42.6563 14.5494 43.1916 15.114 43.8663 15.51C44.541 15.8914 45.3036 16.082 46.1543 16.082C46.9756 16.082 47.7236 15.884 48.3983 15.488C49.0876 15.092 49.6303 14.5274 50.0263 13.794C50.4223 13.0607 50.6203 12.21 50.6203 11.242ZM57.216 7.37005C57.5533 6.62205 58.0667 6.04271 58.756 5.63205C59.46 5.22138 60.318 5.01605 61.33 5.01605V6.62205H60.912C59.7973 6.62205 58.9027 6.92271 58.228 7.52405C57.5533 8.12538 57.216 9.13005 57.216 10.538V17.248H55.676V5.23605H57.216V7.37005ZM62.9427 11.22C62.9427 9.98805 63.1847 8.91005 63.6687 7.98605C64.1674 7.04738 64.8494 6.32871 65.7147 5.83005C66.5947 5.31671 67.5847 5.06005 68.6847 5.06005C69.8287 5.06005 70.8114 5.32405 71.6327 5.85205C72.4687 6.38005 73.0701 7.05471 73.4367 7.87605V5.23605H74.9767V17.248H73.4367V14.586C73.0554 15.4074 72.4467 16.0894 71.6107 16.632C70.7894 17.16 69.8067 17.424 68.6627 17.424C67.5774 17.424 66.5947 17.1674 65.7147 16.654C64.8494 16.1407 64.1674 15.4147 63.6687 14.476C63.1847 13.5374 62.9427 12.452 62.9427 11.22ZM73.4367 11.242C73.4367 10.274 73.2387 9.42338 72.8427 8.69005C72.4467 7.95671 71.9041 7.39205 71.2147 6.99605C70.5401 6.60005 69.7921 6.40205 68.9707 6.40205C68.1201 6.40205 67.3574 6.59271 66.6827 6.97405C66.0081 7.35538 65.4727 7.91271 65.0767 8.64605C64.6954 9.36471 64.5047 10.2227 64.5047 11.22C64.5047 12.2027 64.6954 13.068 65.0767 13.816C65.4727 14.5494 66.0081 15.114 66.6827 15.51C67.3574 15.8914 68.1201 16.082 68.9707 16.082C69.7921 16.082 70.5401 15.884 71.2147 15.488C71.9041 15.092 72.4467 14.5274 72.8427 13.794C73.2387 13.0607 73.4367 12.21 73.4367 11.242ZM80.4944 6.53405V13.992C80.4944 14.7254 80.6338 15.2314 80.9124 15.51C81.1911 15.7887 81.6824 15.928 82.3864 15.928H83.7944V17.248H82.1444C81.0591 17.248 80.2524 16.9987 79.7244 16.5C79.1964 15.9867 78.9324 15.1507 78.9324 13.992V6.53405H77.2604V5.23605H78.9324V2.22205H80.4944V5.23605H83.7944V6.53405H80.4944ZM97.2022 10.626C97.2022 11.154 97.1876 11.5574 97.1582 11.836H87.1922C87.2362 12.7454 87.4562 13.5227 87.8522 14.168C88.2482 14.8134 88.7689 15.3047 89.4142 15.642C90.0596 15.9647 90.7636 16.126 91.5262 16.126C92.5236 16.126 93.3596 15.884 94.0342 15.4C94.7236 14.916 95.1782 14.2634 95.3982 13.442H97.0262C96.7329 14.6154 96.1022 15.576 95.1342 16.324C94.1809 17.0574 92.9782 17.424 91.5262 17.424C90.3969 17.424 89.3849 17.1747 88.4902 16.676C87.5956 16.1627 86.8916 15.444 86.3782 14.52C85.8796 13.5814 85.6302 12.4887 85.6302 11.242C85.6302 9.99538 85.8796 8.90271 86.3782 7.96405C86.8769 7.02538 87.5736 6.30671 88.4682 5.80805C89.3629 5.30938 90.3822 5.06005 91.5262 5.06005C92.6702 5.06005 93.6676 5.30938 94.5182 5.80805C95.3836 6.30671 96.0436 6.98138 96.4982 7.83205C96.9676 8.66805 97.2022 9.59938 97.2022 10.626ZM95.6402 10.582C95.6549 9.68738 95.4716 8.92471 95.0902 8.29405C94.7236 7.66338 94.2176 7.18671 93.5722 6.86405C92.9269 6.54138 92.2229 6.38005 91.4602 6.38005C90.3162 6.38005 89.3409 6.74671 88.5342 7.48005C87.7276 8.21338 87.2802 9.24738 87.1922 10.582H95.6402ZM99.3158 11.22C99.3158 9.98805 99.5651 8.91005 100.064 7.98605C100.562 7.04738 101.244 6.32871 102.11 5.83005C102.99 5.31671 103.98 5.06005 105.08 5.06005C106.136 5.06005 107.089 5.31671 107.94 5.83005C108.79 6.34338 109.414 7.01071 109.81 7.83205V0.968047H111.35V17.248H109.81V14.564C109.443 15.4 108.842 16.0894 108.006 16.632C107.17 17.16 106.187 17.424 105.058 17.424C103.958 17.424 102.968 17.1674 102.088 16.654C101.222 16.1407 100.54 15.4147 100.042 14.476C99.5578 13.5374 99.3158 12.452 99.3158 11.22ZM109.81 11.242C109.81 10.274 109.612 9.42338 109.216 8.69005C108.82 7.95671 108.277 7.39205 107.588 6.99605C106.913 6.60005 106.165 6.40205 105.344 6.40205C104.493 6.40205 103.73 6.59271 103.056 6.97405C102.381 7.35538 101.846 7.91271 101.45 8.64605C101.068 9.36471 100.878 10.2227 100.878 11.22C100.878 12.2027 101.068 13.068 101.45 13.816C101.846 14.5494 102.381 15.114 103.056 15.51C103.73 15.8914 104.493 16.082 105.344 16.082C106.165 16.082 106.913 15.884 107.588 15.488C108.277 15.092 108.82 14.5274 109.216 13.794C109.612 13.0607 109.81 12.21 109.81 11.242ZM119.287 17.446C118.29 17.446 117.395 17.27 116.603 16.918C115.811 16.5514 115.181 16.06 114.711 15.444C114.257 14.828 114.007 14.146 113.963 13.398H117.065C117.124 13.8674 117.351 14.256 117.747 14.564C118.158 14.872 118.664 15.026 119.265 15.026C119.852 15.026 120.307 14.9087 120.629 14.674C120.967 14.4394 121.135 14.1387 121.135 13.772C121.135 13.376 120.93 13.0827 120.519 12.892C120.123 12.6867 119.485 12.4667 118.605 12.232C117.696 12.012 116.948 11.7847 116.361 11.55C115.789 11.3154 115.291 10.956 114.865 10.472C114.455 9.98805 114.249 9.33538 114.249 8.51405C114.249 7.83938 114.44 7.22338 114.821 6.66605C115.217 6.10871 115.775 5.66871 116.493 5.34605C117.227 5.02338 118.085 4.86205 119.067 4.86205C120.519 4.86205 121.678 5.22871 122.543 5.96205C123.409 6.68071 123.885 7.65605 123.973 8.88805H121.025C120.981 8.40405 120.776 8.02271 120.409 7.74405C120.057 7.45071 119.581 7.30405 118.979 7.30405C118.422 7.30405 117.989 7.40671 117.681 7.61205C117.388 7.81738 117.241 8.10338 117.241 8.47005C117.241 8.88071 117.447 9.19605 117.857 9.41605C118.268 9.62138 118.906 9.83405 119.771 10.054C120.651 10.274 121.377 10.5014 121.949 10.736C122.521 10.9707 123.013 11.3374 123.423 11.836C123.849 12.32 124.069 12.9654 124.083 13.772C124.083 14.476 123.885 15.1067 123.489 15.664C123.108 16.2214 122.551 16.6614 121.817 16.984C121.099 17.292 120.255 17.446 119.287 17.446ZM138.118 5.06005V17.248H135.016V15.708C134.62 16.236 134.099 16.654 133.454 16.962C132.823 17.2554 132.134 17.402 131.386 17.402C130.432 17.402 129.589 17.204 128.856 16.808C128.122 16.3974 127.543 15.8034 127.118 15.026C126.707 14.234 126.502 13.2954 126.502 12.21V5.06005H129.582V11.77C129.582 12.738 129.824 13.486 130.308 14.014C130.792 14.5274 131.452 14.784 132.288 14.784C133.138 14.784 133.806 14.5274 134.29 14.014C134.774 13.486 135.016 12.738 135.016 11.77V5.06005H138.118ZM145.821 17.446C144.823 17.446 143.929 17.27 143.137 16.918C142.345 16.5514 141.714 16.06 141.245 15.444C140.79 14.828 140.541 14.146 140.497 13.398H143.599C143.657 13.8674 143.885 14.256 144.281 14.564C144.691 14.872 145.197 15.026 145.799 15.026C146.385 15.026 146.84 14.9087 147.163 14.674C147.5 14.4394 147.669 14.1387 147.669 13.772C147.669 13.376 147.463 13.0827 147.053 12.892C146.657 12.6867 146.019 12.4667 145.139 12.232C144.229 12.012 143.481 11.7847 142.895 11.55C142.323 11.3154 141.824 10.956 141.399 10.472C140.988 9.98805 140.783 9.33538 140.783 8.51405C140.783 7.83938 140.973 7.22338 141.355 6.66605C141.751 6.10871 142.308 5.66871 143.027 5.34605C143.76 5.02338 144.618 4.86205 145.601 4.86205C147.053 4.86205 148.211 5.22871 149.077 5.96205C149.942 6.68071 150.419 7.65605 150.507 8.88805H147.559C147.515 8.40405 147.309 8.02271 146.943 7.74405C146.591 7.45071 146.114 7.30405 145.513 7.30405C144.955 7.30405 144.523 7.40671 144.215 7.61205C143.921 7.81738 143.775 8.10338 143.775 8.47005C143.775 8.88071 143.98 9.19605 144.391 9.41605C144.801 9.62138 145.439 9.83405 146.305 10.054C147.185 10.274 147.911 10.5014 148.483 10.736C149.055 10.9707 149.546 11.3374 149.957 11.836C150.382 12.32 150.602 12.9654 150.617 13.772C150.617 14.476 150.419 15.1067 150.023 15.664C149.641 16.2214 149.084 16.6614 148.351 16.984C147.632 17.292 146.789 17.446 145.821 17.446ZM156.731 7.59005V13.486C156.731 13.8967 156.826 14.1974 157.017 14.388C157.222 14.564 157.56 14.652 158.029 14.652H159.459V17.248H157.523C154.927 17.248 153.629 15.9867 153.629 13.464V7.59005H152.177V5.06005H153.629V2.04605H156.731V5.06005H159.459V7.59005H156.731ZM160.882 11.11C160.882 9.87805 161.124 8.78538 161.608 7.83205C162.107 6.87871 162.774 6.14538 163.61 5.63205C164.461 5.11871 165.407 4.86205 166.448 4.86205C167.358 4.86205 168.15 5.04538 168.824 5.41205C169.514 5.77871 170.064 6.24071 170.474 6.79805V5.06005H173.576V17.248H170.474V15.466C170.078 16.038 169.528 16.5147 168.824 16.896C168.135 17.2627 167.336 17.446 166.426 17.446C165.4 17.446 164.461 17.182 163.61 16.654C162.774 16.126 162.107 15.3854 161.608 14.432C161.124 13.464 160.882 12.3567 160.882 11.11ZM170.474 11.154C170.474 10.406 170.328 9.76805 170.034 9.24005C169.741 8.69738 169.345 8.28671 168.846 8.00805C168.348 7.71471 167.812 7.56805 167.24 7.56805C166.668 7.56805 166.14 7.70738 165.656 7.98605C165.172 8.26471 164.776 8.67538 164.468 9.21805C164.175 9.74605 164.028 10.3767 164.028 11.11C164.028 11.8434 164.175 12.4887 164.468 13.046C164.776 13.5887 165.172 14.0067 165.656 14.3C166.155 14.5934 166.683 14.74 167.24 14.74C167.812 14.74 168.348 14.6007 168.846 14.322C169.345 14.0287 169.741 13.618 170.034 13.09C170.328 12.5474 170.474 11.902 170.474 11.154ZM178.146 3.60805C177.604 3.60805 177.149 3.43938 176.782 3.10205C176.43 2.75005 176.254 2.31738 176.254 1.80405C176.254 1.29071 176.43 0.865379 176.782 0.528046C177.149 0.176046 177.604 4.60148e-05 178.146 4.60148e-05C178.689 4.60148e-05 179.136 0.176046 179.488 0.528046C179.855 0.865379 180.038 1.29071 180.038 1.80405C180.038 2.31738 179.855 2.75005 179.488 3.10205C179.136 3.43938 178.689 3.60805 178.146 3.60805ZM179.664 5.06005V17.248H176.584V5.06005H179.664ZM189.461 4.88405C190.913 4.88405 192.087 5.34605 192.981 6.27005C193.876 7.17938 194.323 8.45538 194.323 10.098V17.248H191.243V10.516C191.243 9.54805 191.001 8.80738 190.517 8.29405C190.033 7.76605 189.373 7.50205 188.537 7.50205C187.687 7.50205 187.012 7.76605 186.513 8.29405C186.029 8.80738 185.787 9.54805 185.787 10.516V17.248H182.707V5.06005H185.787V6.57805C186.198 6.05005 186.719 5.63938 187.349 5.34605C187.995 5.03805 188.699 4.88405 189.461 4.88405ZM196.46 11.11C196.46 9.87805 196.702 8.78538 197.186 7.83205C197.685 6.87871 198.352 6.14538 199.188 5.63205C200.039 5.11871 200.985 4.86205 202.026 4.86205C202.936 4.86205 203.728 5.04538 204.402 5.41205C205.092 5.77871 205.642 6.24071 206.052 6.79805V5.06005H209.154V17.248H206.052V15.466C205.656 16.038 205.106 16.5147 204.402 16.896C203.713 17.2627 202.914 17.446 202.004 17.446C200.978 17.446 200.039 17.182 199.188 16.654C198.352 16.126 197.685 15.3854 197.186 14.432C196.702 13.464 196.46 12.3567 196.46 11.11ZM206.052 11.154C206.052 10.406 205.906 9.76805 205.612 9.24005C205.319 8.69738 204.923 8.28671 204.424 8.00805C203.926 7.71471 203.39 7.56805 202.818 7.56805C202.246 7.56805 201.718 7.70738 201.234 7.98605C200.75 8.26471 200.354 8.67538 200.046 9.21805C199.753 9.74605 199.606 10.3767 199.606 11.11C199.606 11.8434 199.753 12.4887 200.046 13.046C200.354 13.5887 200.75 14.0067 201.234 14.3C201.733 14.5934 202.261 14.74 202.818 14.74C203.39 14.74 203.926 14.6007 204.424 14.322C204.923 14.0287 205.319 13.618 205.612 13.09C205.906 12.5474 206.052 11.902 206.052 11.154ZM215.243 6.84205C215.639 6.25538 216.181 5.77871 216.871 5.41205C217.575 5.04538 218.374 4.86205 219.269 4.86205C220.31 4.86205 221.249 5.11871 222.085 5.63205C222.935 6.14538 223.603 6.87871 224.087 7.83205C224.585 8.77071 224.835 9.86338 224.835 11.11C224.835 12.3567 224.585 13.464 224.087 14.432C223.603 15.3854 222.935 16.126 222.085 16.654C221.249 17.182 220.31 17.446 219.269 17.446C218.359 17.446 217.56 17.27 216.871 16.918C216.196 16.5514 215.653 16.082 215.243 15.51V17.248H212.163V0.968047H215.243V6.84205ZM221.689 11.11C221.689 10.3767 221.535 9.74605 221.227 9.21805C220.933 8.67538 220.537 8.26471 220.039 7.98605C219.555 7.70738 219.027 7.56805 218.455 7.56805C217.897 7.56805 217.369 7.71471 216.871 8.00805C216.387 8.28671 215.991 8.69738 215.683 9.24005C215.389 9.78271 215.243 10.4207 215.243 11.154C215.243 11.8874 215.389 12.5254 215.683 13.068C215.991 13.6107 216.387 14.0287 216.871 14.322C217.369 14.6007 217.897 14.74 218.455 14.74C219.027 14.74 219.555 14.5934 220.039 14.3C220.537 14.0067 220.933 13.5887 221.227 13.046C221.535 12.5034 221.689 11.858 221.689 11.11ZM228.635 3.60805C228.092 3.60805 227.637 3.43938 227.271 3.10205C226.919 2.75005 226.743 2.31738 226.743 1.80405C226.743 1.29071 226.919 0.865379 227.271 0.528046C227.637 0.176046 228.092 4.60148e-05 228.635 4.60148e-05C229.177 4.60148e-05 229.625 0.176046 229.977 0.528046C230.343 0.865379 230.527 1.29071 230.527 1.80405C230.527 2.31738 230.343 2.75005 229.977 3.10205C229.625 3.43938 229.177 3.60805 228.635 3.60805ZM230.153 5.06005V17.248H227.073V5.06005H230.153ZM236.276 0.968047V17.248H233.196V0.968047H236.276ZM240.881 3.60805C240.338 3.60805 239.883 3.43938 239.517 3.10205C239.165 2.75005 238.989 2.31738 238.989 1.80405C238.989 1.29071 239.165 0.865379 239.517 0.528046C239.883 0.176046 240.338 4.60148e-05 240.881 4.60148e-05C241.423 4.60148e-05 241.871 0.176046 242.223 0.528046C242.589 0.865379 242.773 1.29071 242.773 1.80405C242.773 2.31738 242.589 2.75005 242.223 3.10205C241.871 3.43938 241.423 3.60805 240.881 3.60805ZM242.399 5.06005V17.248H239.319V5.06005H242.399ZM249.028 7.59005V13.486C249.028 13.8967 249.123 14.1974 249.314 14.388C249.519 14.564 249.856 14.652 250.326 14.652H251.756V17.248H249.82C247.224 17.248 245.926 15.9867 245.926 13.464V7.59005H244.474V5.06005H245.926V2.04605H249.028V5.06005H251.756V7.59005H249.028ZM265.631 5.06005L258.085 23.012H254.807L257.447 16.94L252.563 5.06005H256.017L259.163 13.574L262.353 5.06005H265.631Z" fill="white"/>
</svg>
