<svg width="46" height="46" viewBox="0 0 46 46" fill="none" xmlns="http://www.w3.org/2000/svg">
<rect width="46" height="46" rx="23" fill="white"/>
<path d="M23.3119 32.3765C22.0785 32.3765 20.9167 32.1581 19.8263 31.7212C18.7361 31.2845 17.7623 30.6881 16.9046 29.932L13.9681 32.8163C13.8634 32.9388 13.7312 33 13.5716 33C13.4117 33 13.2766 32.9418 13.1661 32.8253C13.0554 32.7088 13 32.5736 13 32.4198C13 32.2659 13.0554 32.1367 13.1661 32.0322L16.068 29.1248C15.3022 28.2498 14.7034 27.2685 14.2716 26.1806C13.8397 25.0926 13.6238 23.9284 13.6238 22.6881C13.6238 19.9835 14.5623 17.6927 16.4393 15.8158C18.3164 13.9386 20.6073 13 23.3119 13H31.7758C32.1145 13 32.4031 13.1172 32.6419 13.3515C32.8806 13.5857 33 13.8767 33 14.2245V22.6881C33 25.3809 32.0615 27.6688 30.1846 29.5517C28.3074 31.4349 26.0165 32.3765 23.3119 32.3765ZM23.3119 31.2053C25.6777 31.2053 27.6886 30.3772 29.3448 28.721C31.0008 27.065 31.8288 25.054 31.8288 22.6881V14.1712H23.3119C20.9462 14.1712 18.9352 14.9993 17.279 16.6555C15.623 18.3115 14.7951 20.3223 14.7951 22.6881C14.7951 23.7611 14.9802 24.7782 15.3504 25.7391C15.7206 26.7003 16.2336 27.5551 16.8894 28.3034L24.2382 20.9601C24.3429 20.8494 24.4751 20.7941 24.6347 20.7941C24.7943 20.7941 24.9319 20.8546 25.0475 20.9757C25.161 21.0922 25.2177 21.2256 25.2177 21.376C25.2177 21.5262 25.1585 21.6605 25.0402 21.7788L17.697 29.0954C18.443 29.7535 19.2982 30.2697 20.2626 30.6441C21.2273 31.0182 22.2437 31.2053 23.3119 31.2053Z" fill="currentColor"/>
</svg>
