<svg width="48" height="49" viewBox="0 0 48 49" fill="none" xmlns="http://www.w3.org/2000/svg">
<rect x="48" width="49" height="48" rx="24" transform="rotate(90 48 0)" fill="white"/>
<path d="M33.2402 34.0401L33.2402 13.5596C33.2402 13.1182 33.5986 12.7598 34.04 12.7598C34.4814 12.7598 34.8398 13.1182 34.8398 13.5596L34.8398 34.0401C34.8398 34.4815 34.4814 34.8399 34.04 34.8399C33.5986 34.8399 33.2402 34.4815 33.2402 34.0401Z" fill="#040404"/>
<path d="M23.377 34.0401L23.377 13.5596C23.377 13.1182 23.7354 12.7598 24.1768 12.7598C24.6182 12.7598 24.9766 13.1182 24.9766 13.5596L24.9766 34.0401C24.9766 34.4815 24.6182 34.8399 24.1768 34.8399C23.7354 34.8399 23.377 34.4815 23.377 34.0401Z" fill="#040404"/>
<path d="M13.2402 34.0401L13.2402 13.5596C13.2402 13.1182 13.5986 12.7598 14.04 12.7598C14.4814 12.7598 14.8398 13.1182 14.8398 13.5596L14.8398 34.0401C14.8398 34.4815 14.4814 34.8399 14.04 34.8399C13.5986 34.8399 13.2402 34.4815 13.2402 34.0401Z" fill="#040404"/>
</svg>
