<svg width="22" height="22" viewBox="0 0 22 22" fill="none" xmlns="http://www.w3.org/2000/svg">
<path d="M4.71191 21.0137H0.345703V6.97754H4.71191V21.0137ZM15.8193 6.62891C20.2324 6.62902 21.0479 9.53479 21.0479 13.3154V21.0137H16.6914V14.1895C16.6914 12.5608 16.6589 10.4668 14.4229 10.4668C12.153 10.4669 11.8067 12.2397 11.8066 14.0703V21.0137H7.44922V6.97852H11.6318V8.89648H11.6904C12.2722 7.79278 13.6969 6.62891 15.8193 6.62891ZM2.53027 0C3.92684 6.8462e-05 5.05858 1.1338 5.05859 2.52832C5.05859 3.92581 3.92685 5.0595 2.53027 5.05957C1.1295 5.05957 0 3.92585 0 2.52832C9.61213e-06 1.13375 1.1295 0 2.53027 0Z" fill="#F5F5F5"/>
</svg>
