<svg width="56" height="56" viewBox="0 0 56 56" fill="none" xmlns="http://www.w3.org/2000/svg">
<g clip-path="url(#clip0_7036_35588)">
<path d="M35.8027 22.2852C42.3064 22.2852 43.5088 26.5672 43.5088 32.1387V43.4844H37.0879V33.4268C37.0879 31.0267 37.0403 27.9404 33.7451 27.9404C30.3999 27.9406 29.8896 30.5541 29.8896 33.252V43.4844H23.4688V22.7998H29.6318V25.626H29.7188C30.5761 23.9995 32.675 22.2852 35.8027 22.2852ZM19.4346 43.4834H13V22.7988H19.4346V43.4834ZM16.2188 12.5156C18.2769 12.5156 19.9453 14.187 19.9453 16.2422C19.9453 18.3017 18.2769 19.9717 16.2188 19.9717C14.1546 19.9716 12.4902 18.3016 12.4902 16.2422C12.4902 14.1871 14.1546 12.5157 16.2188 12.5156Z" fill="url(#paint0_linear_7036_35588)"/>
</g>
<defs>
<linearGradient id="paint0_linear_7036_35588" x1="41.2932" y1="43.4844" x2="10.1783" y2="41.1643" gradientUnits="userSpaceOnUse">
<stop stop-color="#818FFE"/>
<stop offset="1" stop-color="#81FEE5"/>
</linearGradient>
<clipPath id="clip0_7036_35588">
<rect width="56" height="56" fill="white"/>
</clipPath>
</defs>
</svg>
