<svg width="32" height="32" viewBox="0 0 32 32" fill="none" xmlns="http://www.w3.org/2000/svg">
<g clip-path="url(#clip0_572_2976)">
<rect width="32" height="32" rx="4" fill="#1A1A1A"/>
<path d="M11.1055 24.8486H7.42871V13.0293H11.1055V24.8486ZM20.459 12.7354C24.1752 12.7355 24.8623 15.1825 24.8623 18.3662V24.8486H21.1934V19.1025C21.1934 17.7311 21.1661 15.9669 19.2832 15.9668C17.3715 15.9668 17.0801 17.4603 17.0801 19.002V24.8486H13.4111V13.0293H16.9326V14.6445H16.9824C17.4723 13.7151 18.6717 12.7354 20.459 12.7354ZM9.26758 7.15234C10.4437 7.15234 11.3975 8.10786 11.3975 9.28223C11.3975 10.4591 10.4437 11.4131 9.26758 11.4131C8.08816 11.4129 7.1377 10.459 7.1377 9.28223C7.1377 8.10799 8.08817 7.15256 9.26758 7.15234Z" fill="white"/>
</g>
<defs>
<clipPath id="clip0_572_2976">
<rect width="32" height="32" rx="4" fill="white"/>
</clipPath>
</defs>
</svg>
