<svg width="23" height="17" viewBox="0 0 23 17" fill="none" xmlns="http://www.w3.org/2000/svg">
<mask id="mask0_6583_55903" style="mask-type:luminance" maskUnits="userSpaceOnUse" x="0" y="0" width="23" height="10">
<path d="M0.378906 0H22.2346V9.01063H0.378906V0Z" fill="white"/>
</mask>
<g mask="url(#mask0_6583_55903)">
<path d="M9.82694 8.33206C9.93218 8.41301 10.0433 8.4844 10.1603 8.54696C10.2766 8.60952 10.3981 8.66251 10.5239 8.7052C10.6498 8.74789 10.7778 8.77953 10.9088 8.80161C11.0398 8.82296 11.1716 8.834 11.3041 8.834C11.4365 8.834 11.5683 8.82296 11.6993 8.80161C11.8303 8.77953 11.9583 8.74789 12.0842 8.7052C12.2093 8.66251 12.3307 8.60952 12.4478 8.54696C12.5648 8.4844 12.6759 8.41301 12.7812 8.33206L22.1561 1.02743C22.045 0.869195 21.9162 0.725679 21.7705 0.598354C21.6247 0.470293 21.4658 0.361367 21.2935 0.272313C21.1221 0.182524 20.9417 0.114813 20.7533 0.0691823C20.5649 0.0228154 20.3743 0 20.18 0H2.43105C2.22571 0 2.02332 0.0264953 1.8246 0.0787501C1.62589 0.130269 1.43748 0.206811 1.2579 0.306905C1.07905 0.406998 0.914928 0.528435 0.766995 0.67048C0.618327 0.812524 0.490266 0.970761 0.382812 1.14519L9.82694 8.33206Z" fill="white"/>
</g>
<mask id="mask1_6583_55903" style="mask-type:luminance" maskUnits="userSpaceOnUse" x="0" y="2" width="23" height="15">
<path d="M0 2.60547H22.6094V16.11H0V2.60547Z" fill="white"/>
</mask>
<g mask="url(#mask1_6583_55903)">
<path d="M13.767 9.61117C13.5918 9.74585 13.4064 9.86508 13.2113 9.96959C13.017 10.0734 12.8146 10.1609 12.6056 10.2323C12.3966 10.303 12.1824 10.3567 11.9646 10.3928C11.7467 10.4288 11.5274 10.4465 11.3059 10.4465C11.0851 10.4465 10.8658 10.4288 10.6479 10.3928C10.4293 10.3567 10.2159 10.303 10.0069 10.2323C9.79785 10.1609 9.59546 10.0734 9.40042 9.96959C9.20612 9.86508 9.02065 9.74585 8.84549 9.61117L0.0078125 2.89018V13.715C0.0078125 13.874 0.023268 14.0315 0.0541794 14.1875C0.0858267 14.3435 0.131457 14.4944 0.192544 14.6416C0.252895 14.7881 0.327229 14.9279 0.415547 15.0596C0.503865 15.1921 0.604694 15.3143 0.716564 15.4269C0.829169 15.5388 0.951342 15.6396 1.08382 15.7279C1.21556 15.8162 1.3554 15.8906 1.50186 15.9509C1.64905 16.012 1.79993 16.0576 1.95596 16.0893C2.11199 16.1202 2.26949 16.1356 2.42846 16.1356H20.1774C20.3364 16.1356 20.4939 16.1202 20.6499 16.0893C20.8059 16.0576 20.9568 16.012 21.104 15.9509C21.2505 15.8906 21.3903 15.8162 21.522 15.7279C21.6545 15.6396 21.7767 15.5388 21.8893 15.4269C22.0012 15.3143 22.102 15.1921 22.1903 15.0596C22.2786 14.9279 22.353 14.7881 22.4133 14.6416C22.4744 14.4944 22.52 14.3435 22.5517 14.1875C22.5826 14.0315 22.5981 13.874 22.5981 13.715V2.73047L13.767 9.61117Z" fill="white"/>
</g>
</svg>
