<svg width="22" height="22" viewBox="0 0 22 22" fill="none" xmlns="http://www.w3.org/2000/svg">
<rect width="22" height="22" rx="11" fill="white"/>
<g clip-path="url(#clip0_5729_51732)">
<g clip-path="url(#clip1_5729_51732)">
<path d="M15.8613 5.88086C15.9291 5.89527 15.9874 5.93509 16.0293 5.97949C16.0715 6.02427 16.1075 6.08431 16.1201 6.15137C16.1325 6.21706 16.1204 6.29127 16.0684 6.35449L16.0703 6.35547L9.25098 16.0723L9.21289 16.125H9.14844C9.09716 16.125 9.01393 16.1267 8.94531 16.1025C8.90702 16.089 8.86474 16.0646 8.83301 16.0215C8.80888 15.9886 8.79792 15.9512 8.79297 15.9131L6.91895 11.6934L6.89453 11.6318C6.84971 11.4903 6.88314 11.3571 6.9834 11.2773C7.08969 11.1929 7.25222 11.1922 7.3584 11.3047L9.26172 13.3213L15.6387 5.95215L15.6416 5.94824C15.7048 5.8813 15.7879 5.86535 15.8613 5.88086Z" fill="black" stroke="black" stroke-width="0.25"/>
</g>
</g>
<defs>
<clipPath id="clip0_5729_51732">
<rect width="17" height="17" fill="white" transform="translate(19.5 19.5) rotate(-180)"/>
</clipPath>
<clipPath id="clip1_5729_51732">
<rect width="16" height="16" fill="white" transform="translate(4 3)"/>
</clipPath>
</defs>
</svg>
