<svg width="46" height="46" viewBox="0 0 46 46" fill="none" xmlns="http://www.w3.org/2000/svg">
<rect width="46" height="46" rx="23" fill="white"/>
<g filter="url(#filter0_d_6798_29350)">
<mask id="mask0_6798_29350" style="mask-type:alpha" maskUnits="userSpaceOnUse" x="8" y="8" width="30" height="30">
<rect x="8" y="8" width="30" height="30" fill="#D9D9D9"/>
</mask>
<g mask="url(#mask0_6798_29350)">
<path d="M20.8348 34.25L20.3477 30.6603C19.9081 30.523 19.4277 30.3094 18.9064 30.0194C18.3854 29.7292 17.9435 29.4179 17.5808 29.0856L14.2673 30.5553L12.0977 26.73L15.0198 24.5522C14.9798 24.3091 14.947 24.0544 14.9214 23.7881C14.8958 23.5219 14.883 23.2672 14.883 23.0241C14.883 22.797 14.8958 22.5517 14.9214 22.2881C14.947 22.0244 14.9798 21.7443 15.0198 21.4478L12.0977 19.2541L14.2673 15.4928L17.5567 16.9222C17.9676 16.5847 18.4179 16.2749 18.9077 15.9928C19.3974 15.7107 19.8694 15.5 20.3236 15.3606L20.8348 11.75H25.1648L25.652 15.3638C26.1612 15.5492 26.6344 15.766 27.0717 16.0144C27.5088 16.2627 27.9338 16.5653 28.3467 16.9222L31.7483 15.4928L33.902 19.2541L30.8836 21.4944C30.9557 21.7727 30.9992 22.0356 31.0142 22.2831C31.0292 22.5308 31.0367 22.7698 31.0367 23C31.0367 23.2142 31.0253 23.4443 31.0023 23.6903C30.9792 23.9364 30.9389 24.2172 30.8814 24.5328L33.8677 26.73L31.6977 30.5553L28.3467 29.0616C27.9201 29.4259 27.4826 29.7446 27.0342 30.0175C26.5861 30.2906 26.1254 30.4969 25.652 30.6362L25.1648 34.25H20.8348ZM21.7145 33.1922H24.2508L24.712 29.7469C25.3483 29.5802 25.9286 29.3464 26.453 29.0453C26.9773 28.7443 27.5092 28.3373 28.0486 27.8244L31.2323 29.1941L32.4798 27.0338L29.6736 24.9431C29.764 24.5671 29.8295 24.2253 29.8702 23.9178C29.9108 23.6105 29.9311 23.3046 29.9311 23C29.9311 22.6687 29.9115 22.3575 29.8723 22.0662C29.8334 21.7748 29.7671 21.4544 29.6736 21.105L32.528 18.9662L31.2802 16.8059L28.0248 18.1778C27.6326 17.7424 27.1217 17.3347 26.4923 16.9547C25.8628 16.5747 25.2614 16.3408 24.6883 16.2531L24.2852 12.8078H21.717L21.3277 16.2291C20.6668 16.3605 20.0648 16.5807 19.5217 16.8897C18.9788 17.1989 18.4445 17.6195 17.9189 18.1516L14.7195 16.8059L13.4717 18.9662L16.2698 21.0303C16.1688 21.328 16.0967 21.6435 16.0536 21.9769C16.0103 22.3102 15.9886 22.6593 15.9886 23.0241C15.9886 23.3553 16.0103 23.6796 16.0536 23.9969C16.0967 24.3142 16.1608 24.6296 16.2458 24.9431L13.4717 27.0338L14.7195 29.1941L17.8948 27.8462C18.3917 28.3552 18.9143 28.7616 19.4627 29.0653C20.011 29.3691 20.6246 29.6043 21.3036 29.7709L21.7145 33.1922ZM22.9405 26.0288C23.7888 26.0288 24.5057 25.736 25.0911 25.1506C25.6767 24.5652 25.9695 23.8483 25.9695 23C25.9695 22.1517 25.6767 21.4348 25.0911 20.8494C24.5057 20.264 23.7888 19.9713 22.9405 19.9713C22.1013 19.9713 21.3867 20.264 20.7967 20.8494C20.2067 21.4348 19.9117 22.1517 19.9117 23C19.9117 23.8483 20.2067 24.5652 20.7967 25.1506C21.3867 25.736 22.1013 26.0288 22.9405 26.0288Z" fill="#040404"/>
</g>
</g>
<defs>
<filter id="filter0_d_6798_29350" x="8.09766" y="11.75" width="29.8044" height="30.5" filterUnits="userSpaceOnUse" color-interpolation-filters="sRGB">
<feFlood flood-opacity="0" result="BackgroundImageFix"/>
<feColorMatrix in="SourceAlpha" type="matrix" values="0 0 0 0 0 0 0 0 0 0 0 0 0 0 0 0 0 0 127 0" result="hardAlpha"/>
<feOffset dy="4"/>
<feGaussianBlur stdDeviation="2"/>
<feComposite in2="hardAlpha" operator="out"/>
<feColorMatrix type="matrix" values="0 0 0 0 0 0 0 0 0 0 0 0 0 0 0 0 0 0 0.25 0"/>
<feBlend mode="normal" in2="BackgroundImageFix" result="effect1_dropShadow_6798_29350"/>
<feBlend mode="normal" in="SourceGraphic" in2="effect1_dropShadow_6798_29350" result="shape"/>
</filter>
</defs>
</svg>
