<svg width="46" height="46" viewBox="0 0 46 46" fill="none" xmlns="http://www.w3.org/2000/svg">
<rect width="46" height="46" rx="23" fill="white"/>
<mask id="mask0_6798_29375" style="mask-type:alpha" maskUnits="userSpaceOnUse" x="7" y="7" width="32" height="32">
<rect x="7" y="7" width="32" height="32" fill="#D9D9D9"/>
</mask>
<g mask="url(#mask0_6798_29375)">
<path d="M14.4491 32.9043C13.8897 32.9043 13.4132 32.7033 13.0197 32.3012C12.6264 31.8989 12.4297 31.4119 12.4297 30.84V14.5241C12.4297 13.9523 12.6264 13.4653 13.0197 13.063C13.4132 12.6609 13.8897 12.4599 14.4491 12.4599H20.3241C20.2101 11.8078 20.3627 11.2188 20.7819 10.693C21.2008 10.1672 21.7501 9.9043 22.4297 9.9043C23.1251 9.9043 23.6824 10.1672 24.1016 10.693C24.5207 11.2188 24.6653 11.8078 24.5353 12.4599H30.4103C30.9697 12.4599 31.4461 12.6609 31.8397 13.063C32.233 13.4653 32.4297 13.9523 32.4297 14.5241V30.84C32.4297 31.4119 32.233 31.8989 31.8397 32.3012C31.4461 32.7033 30.9697 32.9043 30.4103 32.9043H14.4491ZM14.4491 31.6265H30.4103C30.6028 31.6265 30.7792 31.5446 30.9394 31.3809C31.0996 31.2171 31.1797 31.0368 31.1797 30.84V14.5241C31.1797 14.3273 31.0996 14.1471 30.9394 13.9833C30.7792 13.8195 30.6028 13.7376 30.4103 13.7376H14.4491C14.2566 13.7376 14.0802 13.8195 13.92 13.9833C13.7598 14.1471 13.6797 14.3273 13.6797 14.5241V30.84C13.6797 31.0368 13.7598 31.2171 13.92 31.3809C14.0802 31.5446 14.2566 31.6265 14.4491 31.6265ZM16.8047 28.1372H24.3047V26.8595H16.8047V28.1372ZM16.8047 23.321H28.0547V22.0432H16.8047V23.321ZM16.8047 18.5047H28.0547V17.2269H16.8047V18.5047ZM22.4297 13.0249C22.7005 13.0249 22.9245 12.9344 23.1016 12.7534C23.2786 12.5724 23.3672 12.3435 23.3672 12.0666C23.3672 11.7898 23.2786 11.5608 23.1016 11.3798C22.9245 11.1988 22.7005 11.1083 22.4297 11.1083C22.1589 11.1083 21.9349 11.1988 21.7578 11.3798C21.5807 11.5608 21.4922 11.7898 21.4922 12.0666C21.4922 12.3435 21.5807 12.5724 21.7578 12.7534C21.9349 12.9344 22.1589 13.0249 22.4297 13.0249Z" fill="#040404"/>
</g>
</svg>
