<svg width="32" height="32" viewBox="0 0 32 32" fill="none" xmlns="http://www.w3.org/2000/svg">
<g clip-path="url(#clip0_572_2977)">
<rect width="32" height="32" rx="4" fill="#1A1A1A"/>
<path d="M14.0606 18.909V13.0906L19.0992 16.0001L14.0606 18.909ZM25.2925 11.3314C25.0692 10.4969 24.4121 9.83986 23.5779 9.6166C22.0654 9.21094 16.0004 9.21094 16.0004 9.21094C16.0004 9.21094 9.93474 9.21094 8.42224 9.6166C7.58774 9.83986 6.93091 10.4969 6.70765 11.3314C6.30249 12.8437 6.30249 16.0001 6.30249 16.0001C6.30249 16.0001 6.30249 19.1559 6.70765 20.6682C6.93091 21.5027 7.58774 22.1602 8.42224 22.383C9.93474 22.7887 16.0004 22.7887 16.0004 22.7887C16.0004 22.7887 22.0654 22.7887 23.5779 22.383C24.4121 22.1602 25.0692 21.5027 25.2925 20.6682C25.6981 19.1559 25.6981 16.0001 25.6981 16.0001C25.6981 16.0001 25.6981 12.8437 25.2925 11.3314Z" fill="white"/>
</g>
<defs>
<clipPath id="clip0_572_2977">
<rect width="32" height="32" rx="4" fill="white"/>
</clipPath>
</defs>
</svg>
