<svg width="56" height="56" viewBox="0 0 56 56" fill="none" xmlns="http://www.w3.org/2000/svg">
<g clip-path="url(#clip0_7036_35593)">
<path d="M24.606 33.0907V22.9086L33.4235 28.0001L24.606 33.0907ZM44.2618 19.83C43.8711 18.3697 42.7212 17.2198 41.2613 16.8291C38.6144 16.1191 28.0007 16.1191 28.0007 16.1191C28.0007 16.1191 17.3857 16.1191 14.7389 16.8291C13.2785 17.2198 12.129 18.3697 11.7383 19.83C11.0293 22.4765 11.0293 28.0001 11.0293 28.0001C11.0293 28.0001 11.0293 33.5228 11.7383 36.1693C12.129 37.6297 13.2785 38.7804 14.7389 39.1703C17.3857 39.8802 28.0007 39.8802 28.0007 39.8802C28.0007 39.8802 38.6144 39.8802 41.2613 39.1703C42.7212 38.7804 43.8711 37.6297 44.2618 36.1693C44.9717 33.5228 44.9717 28.0001 44.9717 28.0001C44.9717 28.0001 44.9717 22.4765 44.2618 19.83Z" fill="url(#paint0_linear_7036_35593)"/>
</g>
<defs>
<linearGradient id="paint0_linear_7036_35593" x1="42.5472" y1="39.8802" x2="8.69296" y2="36.28" gradientUnits="userSpaceOnUse">
<stop stop-color="#818FFE"/>
<stop offset="1" stop-color="#81FEE5"/>
</linearGradient>
<clipPath id="clip0_7036_35593">
<rect width="56" height="56" fill="white"/>
</clipPath>
</defs>
</svg>
