<svg xmlns="http://www.w3.org/2000/svg" fill="currentColor" stroke="currentColor"><symbol fill="none" id="facebook" viewBox="0 0 56 56"><title>facebook</title><g clip-path="url(#a)"><path d="m22.242 56 .04-20.002h-5.97v-7.126h5.968v-4.157h-.027l.006-.593c.018-1.82.117-3.944.71-5.907.619-2.044 1.695-3.658 3.291-4.936a10.417 10.417 0 0 1 4.73-2.105 23.09 23.09 0 0 1 3.963-.317c1.663 0 3.481.141 5.558.43l.507.07v6.69l-1.387.012-2.095.014c-1.482.012-3.033.174-4.335 1.284-1.288 1.1-1.963 2.811-1.953 4.948l-.03 3.832-.005.735h9.22l-1.37 7.377h-7.726L31.307 56h-9.065Z" fill="currentColor"/></g><defs><clipPath id="a"><path fill="#fff" d="M0 0h56v56H0z"/></clipPath></defs></symbol></svg>